G04 Layer_Physical_Order=1*
G04 Layer_Color=255*
%FSLAX24Y24*%
%MOIN*%
G70*
G01*
G75*
%ADD10R,0.0531X0.0157*%
%ADD11R,0.0748X0.0709*%
%ADD12C,0.0100*%
%ADD13C,0.0550*%
%ADD14R,0.0550X0.0550*%
%ADD15R,0.0591X0.0591*%
%ADD16C,0.0591*%
%ADD17C,0.0400*%
%ADD18R,0.0400X0.0400*%
%ADD19C,0.0600*%
%ADD20R,0.0600X0.0600*%
%ADD21C,0.0551*%
%ADD22R,0.0630X0.0630*%
%ADD23C,0.0630*%
%ADD24R,0.0591X0.0591*%
%ADD25C,0.1299*%
%ADD26O,0.0492X0.0413*%
%ADD27C,0.0472*%
%ADD28C,0.0500*%
G36*
X41847Y153D02*
X153D01*
Y19847D01*
X41847D01*
Y153D01*
D02*
G37*
%LPC*%
G36*
X7392Y8966D02*
X7050D01*
Y8624D01*
X7103Y8631D01*
X7199Y8670D01*
X7282Y8734D01*
X7345Y8816D01*
X7385Y8913D01*
X7392Y8966D01*
D02*
G37*
G36*
X26500Y8899D02*
X26397Y8885D01*
X26301Y8845D01*
X26218Y8782D01*
X26155Y8699D01*
X26115Y8603D01*
X26101Y8500D01*
X26115Y8397D01*
X26155Y8301D01*
X26218Y8218D01*
X26301Y8155D01*
X26397Y8115D01*
X26500Y8101D01*
X26603Y8115D01*
X26699Y8155D01*
X26782Y8218D01*
X26845Y8301D01*
X26885Y8397D01*
X26899Y8500D01*
X26885Y8603D01*
X26845Y8699D01*
X26782Y8782D01*
X26699Y8845D01*
X26603Y8885D01*
X26500Y8899D01*
D02*
G37*
G36*
X7050Y9408D02*
Y9066D01*
X7392D01*
X7385Y9119D01*
X7345Y9215D01*
X7282Y9298D01*
X7199Y9361D01*
X7103Y9401D01*
X7050Y9408D01*
D02*
G37*
G36*
X34450Y9450D02*
X34128D01*
X34134Y9402D01*
X34172Y9311D01*
X34232Y9232D01*
X34311Y9172D01*
X34402Y9134D01*
X34450Y9128D01*
Y9450D01*
D02*
G37*
G36*
X25500Y8899D02*
X25397Y8885D01*
X25301Y8845D01*
X25218Y8782D01*
X25155Y8699D01*
X25115Y8603D01*
X25101Y8500D01*
X25115Y8397D01*
X25155Y8301D01*
X25218Y8218D01*
X25301Y8155D01*
X25397Y8115D01*
X25500Y8101D01*
X25603Y8115D01*
X25699Y8155D01*
X25782Y8218D01*
X25845Y8301D01*
X25885Y8397D01*
X25899Y8500D01*
X25885Y8603D01*
X25845Y8699D01*
X25782Y8782D01*
X25699Y8845D01*
X25603Y8885D01*
X25500Y8899D01*
D02*
G37*
G36*
X37895Y2395D02*
X37550D01*
Y2050D01*
X37895D01*
Y2395D01*
D02*
G37*
G36*
X40395Y2895D02*
X39605D01*
Y2105D01*
X40395D01*
Y2895D01*
D02*
G37*
G36*
X24500Y8899D02*
X24397Y8885D01*
X24301Y8845D01*
X24218Y8782D01*
X24155Y8699D01*
X24115Y8603D01*
X24101Y8500D01*
X24115Y8397D01*
X24155Y8301D01*
X24218Y8218D01*
X24301Y8155D01*
X24397Y8115D01*
X24500Y8101D01*
X24603Y8115D01*
X24699Y8155D01*
X24782Y8218D01*
X24845Y8301D01*
X24885Y8397D01*
X24899Y8500D01*
X24885Y8603D01*
X24845Y8699D01*
X24782Y8782D01*
X24699Y8845D01*
X24603Y8885D01*
X24500Y8899D01*
D02*
G37*
G36*
X37450Y2395D02*
X37105D01*
Y2050D01*
X37450D01*
Y2395D01*
D02*
G37*
G36*
X34872Y9450D02*
X34550D01*
Y9128D01*
X34598Y9134D01*
X34689Y9172D01*
X34768Y9232D01*
X34828Y9311D01*
X34866Y9402D01*
X34872Y9450D01*
D02*
G37*
G36*
X37895Y1950D02*
X37550D01*
Y1605D01*
X37895D01*
Y1950D01*
D02*
G37*
G36*
X25500Y11899D02*
X25397Y11885D01*
X25301Y11845D01*
X25218Y11782D01*
X25155Y11699D01*
X25115Y11603D01*
X25101Y11500D01*
X25115Y11397D01*
X25155Y11301D01*
X25218Y11218D01*
X25301Y11155D01*
X25397Y11115D01*
X25500Y11101D01*
X25603Y11115D01*
X25699Y11155D01*
X25782Y11218D01*
X25845Y11301D01*
X25885Y11397D01*
X25899Y11500D01*
X25885Y11603D01*
X25845Y11699D01*
X25782Y11782D01*
X25699Y11845D01*
X25603Y11885D01*
X25500Y11899D01*
D02*
G37*
G36*
X24450Y11450D02*
X24108D01*
X24115Y11397D01*
X24155Y11301D01*
X24218Y11218D01*
X24301Y11155D01*
X24397Y11115D01*
X24450Y11108D01*
Y11450D01*
D02*
G37*
G36*
X37450Y1950D02*
X37105D01*
Y1605D01*
X37450D01*
Y1950D01*
D02*
G37*
G36*
X24892Y11450D02*
X24550D01*
Y11108D01*
X24603Y11115D01*
X24699Y11155D01*
X24782Y11218D01*
X24845Y11301D01*
X24885Y11397D01*
X24892Y11450D01*
D02*
G37*
G36*
X34550Y9872D02*
Y9550D01*
X34872D01*
X34866Y9598D01*
X34828Y9689D01*
X34768Y9768D01*
X34689Y9828D01*
X34598Y9866D01*
X34550Y9872D01*
D02*
G37*
G36*
X34450D02*
X34402Y9866D01*
X34311Y9828D01*
X34232Y9768D01*
X34172Y9689D01*
X34134Y9598D01*
X34128Y9550D01*
X34450D01*
Y9872D01*
D02*
G37*
G36*
X38400Y15599D02*
X38297Y15585D01*
X38201Y15545D01*
X38118Y15482D01*
X38055Y15399D01*
X38015Y15303D01*
X38001Y15200D01*
X38015Y15097D01*
X38055Y15001D01*
X38118Y14918D01*
X38201Y14855D01*
X38297Y14815D01*
X38400Y14801D01*
X38503Y14815D01*
X38550Y14834D01*
X39347Y14037D01*
Y10088D01*
X39359Y10030D01*
X39392Y9980D01*
X39440Y9931D01*
X39421Y9885D01*
X39371D01*
X39193Y10063D01*
Y13560D01*
X39181Y13619D01*
X39148Y13668D01*
X38766Y14050D01*
X38785Y14097D01*
X38799Y14200D01*
X38785Y14303D01*
X38745Y14399D01*
X38682Y14482D01*
X38599Y14545D01*
X38503Y14585D01*
X38400Y14599D01*
X38297Y14585D01*
X38201Y14545D01*
X38118Y14482D01*
X38055Y14399D01*
X38015Y14303D01*
X38001Y14200D01*
X38015Y14097D01*
X38055Y14001D01*
X38118Y13918D01*
X38201Y13855D01*
X38297Y13815D01*
X38400Y13801D01*
X38503Y13815D01*
X38550Y13834D01*
X38742Y13641D01*
X38723Y13595D01*
X38005D01*
Y12805D01*
X38247D01*
Y9876D01*
X38259Y9818D01*
X38292Y9768D01*
X38692Y9368D01*
X38741Y9335D01*
X38767Y9330D01*
X38783Y9276D01*
X38612Y9105D01*
X38579Y9055D01*
X38567Y8996D01*
Y5283D01*
X37650Y4366D01*
X37603Y4385D01*
X37500Y4399D01*
X37397Y4385D01*
X37301Y4345D01*
X37218Y4282D01*
X37155Y4199D01*
X37115Y4103D01*
X37101Y4000D01*
X37115Y3897D01*
X37155Y3801D01*
X37218Y3718D01*
X37301Y3655D01*
X37397Y3615D01*
X37500Y3601D01*
X37603Y3615D01*
X37699Y3655D01*
X37782Y3718D01*
X37845Y3801D01*
X37885Y3897D01*
X37899Y4000D01*
X37885Y4103D01*
X37866Y4150D01*
X38828Y5112D01*
X38861Y5161D01*
X38873Y5220D01*
Y8933D01*
X39263Y9323D01*
X39575D01*
X39599Y9273D01*
X39594Y9267D01*
X39563Y9192D01*
X39553Y9112D01*
X39563Y9032D01*
X39594Y8958D01*
X39643Y8893D01*
X39708Y8844D01*
X39782Y8813D01*
X39862Y8803D01*
X39941D01*
X40021Y8813D01*
X40096Y8844D01*
X40160Y8893D01*
X40209Y8958D01*
X40240Y9032D01*
X40250Y9112D01*
X40240Y9192D01*
X40217Y9248D01*
X40243Y9298D01*
X40366D01*
Y9554D01*
Y9809D01*
Y10065D01*
Y10321D01*
Y10450D01*
X40000D01*
Y10550D01*
X40366D01*
Y10679D01*
X40243D01*
X40217Y10729D01*
X40240Y10784D01*
X40250Y10864D01*
X40240Y10944D01*
X40209Y11019D01*
X40160Y11083D01*
X40096Y11132D01*
X40021Y11163D01*
X39941Y11174D01*
X39862D01*
X39782Y11163D01*
X39708Y11132D01*
X39698Y11125D01*
X39653Y11147D01*
Y14100D01*
X39641Y14159D01*
X39608Y14208D01*
X38766Y15050D01*
X38785Y15097D01*
X38799Y15200D01*
X38785Y15303D01*
X38745Y15399D01*
X38682Y15482D01*
X38599Y15545D01*
X38503Y15585D01*
X38400Y15599D01*
D02*
G37*
G36*
X3000Y2378D02*
X2902Y2365D01*
X2811Y2328D01*
X2733Y2267D01*
X2672Y2189D01*
X2635Y2098D01*
X2622Y2000D01*
X2635Y1902D01*
X2672Y1811D01*
X2733Y1733D01*
X2811Y1672D01*
X2902Y1635D01*
X3000Y1622D01*
X3098Y1635D01*
X3189Y1672D01*
X3267Y1733D01*
X3328Y1811D01*
X3365Y1902D01*
X3378Y2000D01*
X3365Y2098D01*
X3328Y2189D01*
X3267Y2267D01*
X3189Y2328D01*
X3098Y2365D01*
X3000Y2378D01*
D02*
G37*
G36*
X7000D02*
X6902Y2365D01*
X6811Y2328D01*
X6733Y2267D01*
X6672Y2189D01*
X6635Y2098D01*
X6622Y2000D01*
X6635Y1902D01*
X6672Y1811D01*
X6733Y1733D01*
X6811Y1672D01*
X6902Y1635D01*
X7000Y1622D01*
X7098Y1635D01*
X7189Y1672D01*
X7267Y1733D01*
X7328Y1811D01*
X7365Y1902D01*
X7378Y2000D01*
X7365Y2098D01*
X7328Y2189D01*
X7267Y2267D01*
X7189Y2328D01*
X7098Y2365D01*
X7000Y2378D01*
D02*
G37*
G36*
X37500Y3399D02*
X37397Y3385D01*
X37301Y3345D01*
X37218Y3282D01*
X37155Y3199D01*
X37115Y3103D01*
X37101Y3000D01*
X37115Y2897D01*
X37155Y2801D01*
X37218Y2718D01*
X37301Y2655D01*
X37397Y2615D01*
X37500Y2601D01*
X37603Y2615D01*
X37699Y2655D01*
X37782Y2718D01*
X37845Y2801D01*
X37885Y2897D01*
X37899Y3000D01*
X37885Y3103D01*
X37845Y3199D01*
X37782Y3282D01*
X37699Y3345D01*
X37603Y3385D01*
X37500Y3399D01*
D02*
G37*
G36*
X25500Y4399D02*
X25397Y4385D01*
X25301Y4345D01*
X25218Y4282D01*
X25155Y4199D01*
X25115Y4103D01*
X25101Y4000D01*
X25115Y3897D01*
X25155Y3801D01*
X25218Y3718D01*
X25301Y3655D01*
X25397Y3615D01*
X25500Y3601D01*
X25603Y3615D01*
X25699Y3655D01*
X25782Y3718D01*
X25845Y3801D01*
X25885Y3897D01*
X25899Y4000D01*
X25885Y4103D01*
X25845Y4199D01*
X25782Y4282D01*
X25699Y4345D01*
X25603Y4385D01*
X25500Y4399D01*
D02*
G37*
G36*
X30000D02*
X29897Y4385D01*
X29801Y4345D01*
X29718Y4282D01*
X29655Y4199D01*
X29615Y4103D01*
X29601Y4000D01*
X29615Y3897D01*
X29655Y3801D01*
X29718Y3718D01*
X29801Y3655D01*
X29897Y3615D01*
X30000Y3601D01*
X30103Y3615D01*
X30199Y3655D01*
X30282Y3718D01*
X30345Y3801D01*
X30385Y3897D01*
X30399Y4000D01*
X30385Y4103D01*
X30345Y4199D01*
X30282Y4282D01*
X30199Y4345D01*
X30103Y4385D01*
X30000Y4399D01*
D02*
G37*
G36*
X25500Y5399D02*
X25397Y5385D01*
X25301Y5345D01*
X25218Y5282D01*
X25155Y5199D01*
X25115Y5103D01*
X25101Y5000D01*
X25115Y4897D01*
X25155Y4801D01*
X25218Y4718D01*
X25301Y4655D01*
X25397Y4615D01*
X25500Y4601D01*
X25603Y4615D01*
X25699Y4655D01*
X25782Y4718D01*
X25845Y4801D01*
X25885Y4897D01*
X25899Y5000D01*
X25885Y5103D01*
X25845Y5199D01*
X25782Y5282D01*
X25699Y5345D01*
X25603Y5385D01*
X25500Y5399D01*
D02*
G37*
G36*
X27395Y5395D02*
X26605D01*
Y4605D01*
X27395D01*
Y5395D01*
D02*
G37*
G36*
X30000Y5399D02*
X29897Y5385D01*
X29801Y5345D01*
X29718Y5282D01*
X29655Y5199D01*
X29615Y5103D01*
X29601Y5000D01*
X29615Y4897D01*
X29655Y4801D01*
X29718Y4718D01*
X29801Y4655D01*
X29897Y4615D01*
X30000Y4601D01*
X30103Y4615D01*
X30199Y4655D01*
X30282Y4718D01*
X30345Y4801D01*
X30385Y4897D01*
X30399Y5000D01*
X30385Y5103D01*
X30345Y5199D01*
X30282Y5282D01*
X30199Y5345D01*
X30103Y5385D01*
X30000Y5399D01*
D02*
G37*
G36*
X7050Y4372D02*
Y4050D01*
X7372D01*
X7365Y4098D01*
X7328Y4189D01*
X7267Y4267D01*
X7189Y4328D01*
X7098Y4365D01*
X7050Y4372D01*
D02*
G37*
G36*
X6950D02*
X6902Y4365D01*
X6811Y4328D01*
X6733Y4267D01*
X6672Y4189D01*
X6635Y4098D01*
X6628Y4050D01*
X6950D01*
Y4372D01*
D02*
G37*
G36*
X7372Y3950D02*
X7050D01*
Y3628D01*
X7098Y3635D01*
X7189Y3672D01*
X7267Y3733D01*
X7328Y3811D01*
X7365Y3902D01*
X7372Y3950D01*
D02*
G37*
G36*
X3000Y4378D02*
X2902Y4365D01*
X2811Y4328D01*
X2733Y4267D01*
X2672Y4189D01*
X2635Y4098D01*
X2622Y4000D01*
X2635Y3902D01*
X2672Y3811D01*
X2733Y3733D01*
X2811Y3672D01*
X2902Y3635D01*
X3000Y3622D01*
X3098Y3635D01*
X3189Y3672D01*
X3267Y3733D01*
X3328Y3811D01*
X3365Y3902D01*
X3378Y4000D01*
X3365Y4098D01*
X3328Y4189D01*
X3267Y4267D01*
X3189Y4328D01*
X3098Y4365D01*
X3000Y4378D01*
D02*
G37*
G36*
X6950Y3950D02*
X6628D01*
X6635Y3902D01*
X6672Y3811D01*
X6733Y3733D01*
X6811Y3672D01*
X6902Y3635D01*
X6950Y3628D01*
Y3950D01*
D02*
G37*
G36*
X7000Y5378D02*
X6902Y5365D01*
X6811Y5328D01*
X6733Y5267D01*
X6672Y5189D01*
X6635Y5098D01*
X6622Y5000D01*
X6635Y4902D01*
X6672Y4811D01*
X6733Y4733D01*
X6811Y4672D01*
X6902Y4635D01*
X7000Y4622D01*
X7098Y4635D01*
X7189Y4672D01*
X7267Y4733D01*
X7328Y4811D01*
X7365Y4902D01*
X7378Y5000D01*
X7365Y5098D01*
X7328Y5189D01*
X7267Y5267D01*
X7189Y5328D01*
X7098Y5365D01*
X7000Y5378D01*
D02*
G37*
G36*
X34500Y7879D02*
X34402Y7866D01*
X34311Y7828D01*
X34232Y7768D01*
X34172Y7689D01*
X34134Y7598D01*
X34121Y7500D01*
X34134Y7402D01*
X34172Y7311D01*
X34232Y7232D01*
X34311Y7172D01*
X34402Y7134D01*
X34500Y7121D01*
X34598Y7134D01*
X34689Y7172D01*
X34768Y7232D01*
X34828Y7311D01*
X34866Y7402D01*
X34879Y7500D01*
X34866Y7598D01*
X34828Y7689D01*
X34768Y7768D01*
X34689Y7828D01*
X34598Y7866D01*
X34500Y7879D01*
D02*
G37*
G36*
X31500D02*
X31402Y7866D01*
X31311Y7828D01*
X31232Y7768D01*
X31172Y7689D01*
X31134Y7598D01*
X31121Y7500D01*
X31134Y7402D01*
X31172Y7311D01*
X31232Y7232D01*
X31311Y7172D01*
X31402Y7134D01*
X31500Y7121D01*
X31598Y7134D01*
X31689Y7172D01*
X31768Y7232D01*
X31828Y7311D01*
X31866Y7402D01*
X31879Y7500D01*
X31866Y7598D01*
X31828Y7689D01*
X31768Y7768D01*
X31689Y7828D01*
X31598Y7866D01*
X31500Y7879D01*
D02*
G37*
G36*
X4942Y7942D02*
X4244D01*
X4253Y7845D01*
X4296Y7704D01*
X4366Y7574D01*
X4460Y7459D01*
X4574Y7366D01*
X4704Y7296D01*
X4845Y7253D01*
X4942Y7244D01*
Y7942D01*
D02*
G37*
G36*
Y8740D02*
X4845Y8731D01*
X4704Y8688D01*
X4574Y8618D01*
X4460Y8525D01*
X4366Y8411D01*
X4296Y8280D01*
X4253Y8139D01*
X4244Y8042D01*
X4942D01*
Y8740D01*
D02*
G37*
G36*
X41321Y12001D02*
X40825D01*
X40786Y11993D01*
X40743Y11975D01*
X40709Y11953D01*
X40676Y11920D01*
X40654Y11886D01*
X40636Y11843D01*
X40628Y11804D01*
Y11038D01*
X40636Y10999D01*
X40658Y10966D01*
X40690Y10945D01*
X40691Y10941D01*
X40681Y10895D01*
X40630D01*
Y9987D01*
Y9081D01*
X40681D01*
X40691Y9036D01*
X40690Y9031D01*
X40658Y9010D01*
X40636Y8977D01*
X40628Y8938D01*
Y8172D01*
X40636Y8133D01*
X40654Y8090D01*
X40676Y8057D01*
X40709Y8024D01*
X40743Y8002D01*
X40786Y7984D01*
X40825Y7976D01*
X41321D01*
X41360Y7984D01*
X41432Y8014D01*
X41465Y8036D01*
X41520Y8091D01*
X41543Y8124D01*
X41573Y8196D01*
X41580Y8235D01*
Y8938D01*
X41573Y8977D01*
X41550Y9010D01*
X41519Y9031D01*
X41518Y9036D01*
X41527Y9081D01*
X41578D01*
Y9987D01*
Y10895D01*
X41527D01*
X41518Y10941D01*
X41519Y10945D01*
X41550Y10966D01*
X41573Y10999D01*
X41580Y11038D01*
Y11741D01*
X41573Y11780D01*
X41543Y11852D01*
X41520Y11885D01*
X41465Y11941D01*
X41432Y11963D01*
X41360Y11993D01*
X41321Y12001D01*
D02*
G37*
G36*
X34500Y5879D02*
X34402Y5866D01*
X34311Y5828D01*
X34232Y5768D01*
X34172Y5689D01*
X34134Y5598D01*
X34121Y5500D01*
X34134Y5402D01*
X34172Y5311D01*
X34232Y5232D01*
X34311Y5172D01*
X34402Y5134D01*
X34500Y5121D01*
X34598Y5134D01*
X34689Y5172D01*
X34768Y5232D01*
X34828Y5311D01*
X34866Y5402D01*
X34879Y5500D01*
X34866Y5598D01*
X34828Y5689D01*
X34768Y5768D01*
X34689Y5828D01*
X34598Y5866D01*
X34500Y5879D01*
D02*
G37*
G36*
X3375Y5375D02*
X2625D01*
Y4625D01*
X3375D01*
Y5375D01*
D02*
G37*
G36*
X37500Y6399D02*
X37397Y6385D01*
X37301Y6345D01*
X37218Y6282D01*
X37155Y6199D01*
X37115Y6103D01*
X37101Y6000D01*
X37115Y5897D01*
X37155Y5801D01*
X37218Y5718D01*
X37301Y5655D01*
X37397Y5615D01*
X37500Y5601D01*
X37603Y5615D01*
X37699Y5655D01*
X37782Y5718D01*
X37845Y5801D01*
X37885Y5897D01*
X37899Y6000D01*
X37885Y6103D01*
X37845Y6199D01*
X37782Y6282D01*
X37699Y6345D01*
X37603Y6385D01*
X37500Y6399D01*
D02*
G37*
G36*
Y7399D02*
X37397Y7385D01*
X37301Y7345D01*
X37218Y7282D01*
X37155Y7199D01*
X37115Y7103D01*
X37101Y7000D01*
X37115Y6897D01*
X37155Y6801D01*
X37218Y6718D01*
X37301Y6655D01*
X37397Y6615D01*
X37500Y6601D01*
X37603Y6615D01*
X37699Y6655D01*
X37782Y6718D01*
X37845Y6801D01*
X37885Y6897D01*
X37899Y7000D01*
X37885Y7103D01*
X37845Y7199D01*
X37782Y7282D01*
X37699Y7345D01*
X37603Y7385D01*
X37500Y7399D01*
D02*
G37*
G36*
X3000Y3378D02*
X2902Y3365D01*
X2811Y3328D01*
X2733Y3267D01*
X2672Y3189D01*
X2635Y3098D01*
X2622Y3000D01*
X2635Y2902D01*
X2672Y2811D01*
X2733Y2733D01*
X2811Y2672D01*
X2902Y2635D01*
X3000Y2622D01*
X3098Y2635D01*
X3189Y2672D01*
X3267Y2733D01*
X3328Y2811D01*
X3365Y2902D01*
X3378Y3000D01*
X3365Y3098D01*
X3328Y3189D01*
X3267Y3267D01*
X3189Y3328D01*
X3098Y3365D01*
X3000Y3378D01*
D02*
G37*
G36*
X34500Y11879D02*
X34402Y11866D01*
X34311Y11828D01*
X34232Y11768D01*
X34172Y11689D01*
X34134Y11598D01*
X34121Y11500D01*
X34134Y11402D01*
X34172Y11311D01*
X34232Y11232D01*
X34311Y11172D01*
X34402Y11134D01*
X34500Y11121D01*
X34598Y11134D01*
X34689Y11172D01*
X34768Y11232D01*
X34828Y11311D01*
X34866Y11402D01*
X34879Y11500D01*
X34866Y11598D01*
X34828Y11689D01*
X34768Y11768D01*
X34689Y11828D01*
X34598Y11866D01*
X34500Y11879D01*
D02*
G37*
G36*
X6120Y16296D02*
Y16050D01*
X6366D01*
X6362Y16078D01*
X6332Y16151D01*
X6284Y16214D01*
X6221Y16262D01*
X6148Y16292D01*
X6120Y16296D01*
D02*
G37*
G36*
X6020D02*
X5992Y16292D01*
X5919Y16262D01*
X5856Y16214D01*
X5808Y16151D01*
X5778Y16078D01*
X5774Y16050D01*
X6020D01*
Y16296D01*
D02*
G37*
G36*
X38400Y16599D02*
X38297Y16585D01*
X38201Y16545D01*
X38118Y16482D01*
X38055Y16399D01*
X38015Y16303D01*
X38001Y16200D01*
X38015Y16097D01*
X38055Y16001D01*
X38118Y15918D01*
X38201Y15855D01*
X38297Y15815D01*
X38400Y15801D01*
X38503Y15815D01*
X38599Y15855D01*
X38682Y15918D01*
X38745Y16001D01*
X38785Y16097D01*
X38799Y16200D01*
X38785Y16303D01*
X38745Y16399D01*
X38682Y16482D01*
X38599Y16545D01*
X38503Y16585D01*
X38400Y16599D01*
D02*
G37*
G36*
X2950Y16892D02*
X2897Y16885D01*
X2801Y16845D01*
X2718Y16782D01*
X2655Y16699D01*
X2615Y16603D01*
X2608Y16550D01*
X2950D01*
Y16892D01*
D02*
G37*
G36*
X3392Y16450D02*
X3050D01*
Y16108D01*
X3103Y16115D01*
X3199Y16155D01*
X3282Y16218D01*
X3345Y16301D01*
X3385Y16397D01*
X3392Y16450D01*
D02*
G37*
G36*
X2950D02*
X2608D01*
X2615Y16397D01*
X2655Y16301D01*
X2718Y16218D01*
X2801Y16155D01*
X2897Y16115D01*
X2950Y16108D01*
Y16450D01*
D02*
G37*
G36*
X32900Y15450D02*
X32550D01*
Y15100D01*
X32900D01*
Y15450D01*
D02*
G37*
G36*
X30500Y15903D02*
X30396Y15890D01*
X30298Y15849D01*
X30215Y15785D01*
X30151Y15702D01*
X30110Y15604D01*
X30097Y15500D01*
X30110Y15396D01*
X30151Y15298D01*
X30215Y15215D01*
X30298Y15151D01*
X30396Y15110D01*
X30500Y15097D01*
X30604Y15110D01*
X30702Y15151D01*
X30785Y15215D01*
X30849Y15298D01*
X30890Y15396D01*
X30903Y15500D01*
X30890Y15604D01*
X30849Y15702D01*
X30785Y15785D01*
X30702Y15849D01*
X30604Y15890D01*
X30500Y15903D01*
D02*
G37*
G36*
X11500Y1899D02*
X11397Y1885D01*
X11301Y1845D01*
X11218Y1782D01*
X11155Y1699D01*
X11115Y1603D01*
X11101Y1500D01*
X11115Y1397D01*
X11155Y1301D01*
X11218Y1218D01*
X11301Y1155D01*
X11397Y1115D01*
X11500Y1101D01*
X11603Y1115D01*
X11699Y1155D01*
X11782Y1218D01*
X11845Y1301D01*
X11885Y1397D01*
X11899Y1500D01*
X11885Y1603D01*
X11845Y1699D01*
X11782Y1782D01*
X11699Y1845D01*
X11603Y1885D01*
X11500Y1899D01*
D02*
G37*
G36*
X6366Y15950D02*
X6120D01*
Y15704D01*
X6148Y15708D01*
X6221Y15738D01*
X6284Y15786D01*
X6332Y15849D01*
X6362Y15922D01*
X6366Y15950D01*
D02*
G37*
G36*
X6020D02*
X5774D01*
X5778Y15922D01*
X5808Y15849D01*
X5856Y15786D01*
X5919Y15738D01*
X5992Y15708D01*
X6020Y15704D01*
Y15950D01*
D02*
G37*
G36*
X3395Y15895D02*
X2605D01*
Y15105D01*
X3395D01*
Y15895D01*
D02*
G37*
G36*
X20050Y17333D02*
Y17050D01*
X20333D01*
X20328Y17088D01*
X20294Y17170D01*
X20240Y17240D01*
X20170Y17294D01*
X20088Y17328D01*
X20050Y17333D01*
D02*
G37*
G36*
X19950D02*
X19912Y17328D01*
X19830Y17294D01*
X19760Y17240D01*
X19706Y17170D01*
X19672Y17088D01*
X19667Y17050D01*
X19950D01*
Y17333D01*
D02*
G37*
G36*
X23950D02*
X23912Y17328D01*
X23830Y17294D01*
X23760Y17240D01*
X23706Y17170D01*
X23672Y17088D01*
X23667Y17050D01*
X23950D01*
Y17333D01*
D02*
G37*
G36*
X38450Y17592D02*
Y17250D01*
X38792D01*
X38785Y17303D01*
X38745Y17399D01*
X38682Y17482D01*
X38599Y17545D01*
X38503Y17585D01*
X38450Y17592D01*
D02*
G37*
G36*
X38350D02*
X38297Y17585D01*
X38201Y17545D01*
X38118Y17482D01*
X38055Y17399D01*
X38015Y17303D01*
X38008Y17250D01*
X38350D01*
Y17592D01*
D02*
G37*
G36*
X24050Y17333D02*
Y17050D01*
X24333D01*
X24328Y17088D01*
X24294Y17170D01*
X24240Y17240D01*
X24170Y17294D01*
X24088Y17328D01*
X24050Y17333D01*
D02*
G37*
G36*
X20333Y16950D02*
X20050D01*
Y16667D01*
X20088Y16672D01*
X20170Y16706D01*
X20240Y16760D01*
X20294Y16830D01*
X20328Y16912D01*
X20333Y16950D01*
D02*
G37*
G36*
X19950D02*
X19667D01*
X19672Y16912D01*
X19706Y16830D01*
X19760Y16760D01*
X19830Y16706D01*
X19912Y16672D01*
X19950Y16667D01*
Y16950D01*
D02*
G37*
G36*
X3050Y16892D02*
Y16550D01*
X3392D01*
X3385Y16603D01*
X3345Y16699D01*
X3282Y16782D01*
X3199Y16845D01*
X3103Y16885D01*
X3050Y16892D01*
D02*
G37*
G36*
X38792Y17150D02*
X38450D01*
Y16808D01*
X38503Y16815D01*
X38599Y16855D01*
X38682Y16918D01*
X38745Y17001D01*
X38785Y17097D01*
X38792Y17150D01*
D02*
G37*
G36*
X38350D02*
X38008D01*
X38015Y17097D01*
X38055Y17001D01*
X38118Y16918D01*
X38201Y16855D01*
X38297Y16815D01*
X38350Y16808D01*
Y17150D01*
D02*
G37*
G36*
X6070Y17303D02*
X5992Y17292D01*
X5919Y17262D01*
X5856Y17214D01*
X5808Y17151D01*
X5778Y17078D01*
X5767Y17000D01*
X5778Y16922D01*
X5808Y16849D01*
X5856Y16786D01*
X5919Y16738D01*
X5992Y16708D01*
X6070Y16697D01*
X6148Y16708D01*
X6221Y16738D01*
X6284Y16786D01*
X6332Y16849D01*
X6362Y16922D01*
X6373Y17000D01*
X6362Y17078D01*
X6332Y17151D01*
X6284Y17214D01*
X6221Y17262D01*
X6148Y17292D01*
X6070Y17303D01*
D02*
G37*
G36*
Y18303D02*
X5992Y18292D01*
X5919Y18262D01*
X5856Y18214D01*
X5808Y18151D01*
X5778Y18078D01*
X5767Y18000D01*
X5778Y17922D01*
X5808Y17849D01*
X5856Y17786D01*
X5919Y17738D01*
X5992Y17708D01*
X6070Y17697D01*
X6148Y17708D01*
X6221Y17738D01*
X6284Y17786D01*
X6331Y17847D01*
X9253D01*
X9270Y17797D01*
X9232Y17768D01*
X9172Y17689D01*
X9134Y17598D01*
X9121Y17500D01*
X9134Y17402D01*
X9172Y17311D01*
X9232Y17232D01*
X9311Y17172D01*
X9402Y17134D01*
X9500Y17121D01*
X9598Y17134D01*
X9689Y17172D01*
X9768Y17232D01*
X9828Y17311D01*
X9866Y17402D01*
X9879Y17500D01*
X9866Y17598D01*
X9828Y17689D01*
X9768Y17768D01*
X9730Y17797D01*
X9747Y17847D01*
X11753D01*
X11770Y17797D01*
X11732Y17768D01*
X11672Y17689D01*
X11634Y17598D01*
X11621Y17500D01*
X11634Y17402D01*
X11649Y17365D01*
X11092Y16808D01*
X11059Y16759D01*
X11047Y16700D01*
Y14040D01*
X11059Y13981D01*
X11092Y13932D01*
X11737Y13287D01*
Y11798D01*
X11692Y11776D01*
X11670Y11794D01*
X11588Y11828D01*
X11500Y11839D01*
X11412Y11828D01*
X11396Y11821D01*
X9653Y13563D01*
Y14157D01*
X9689Y14172D01*
X9768Y14232D01*
X9828Y14311D01*
X9866Y14402D01*
X9879Y14500D01*
X9866Y14598D01*
X9828Y14689D01*
X9768Y14768D01*
X9689Y14828D01*
X9598Y14866D01*
X9500Y14879D01*
X9402Y14866D01*
X9311Y14828D01*
X9232Y14768D01*
X9172Y14689D01*
X9134Y14598D01*
X9121Y14500D01*
X9134Y14402D01*
X9172Y14311D01*
X9232Y14232D01*
X9311Y14172D01*
X9347Y14157D01*
Y13500D01*
X9359Y13441D01*
X9392Y13392D01*
X11179Y11604D01*
X11172Y11588D01*
X11161Y11500D01*
X11172Y11412D01*
X11206Y11330D01*
X11260Y11260D01*
X11330Y11206D01*
X11412Y11172D01*
X11500Y11161D01*
X11588Y11172D01*
X11670Y11206D01*
X11692Y11224D01*
X11737Y11202D01*
Y8953D01*
X11604Y8821D01*
X11588Y8828D01*
X11500Y8839D01*
X11412Y8828D01*
X11330Y8794D01*
X11260Y8740D01*
X11206Y8670D01*
X11172Y8588D01*
X11161Y8500D01*
X11172Y8412D01*
X11206Y8330D01*
X11260Y8260D01*
X11330Y8206D01*
X11412Y8172D01*
X11500Y8161D01*
X11516Y8163D01*
X11539Y8116D01*
X10662Y7238D01*
X10629Y7189D01*
X10617Y7130D01*
Y4230D01*
X10629Y4171D01*
X10662Y4122D01*
X11134Y3650D01*
X11115Y3603D01*
X11101Y3500D01*
X11115Y3397D01*
X11155Y3301D01*
X11218Y3218D01*
X11238Y3203D01*
X11221Y3153D01*
X10913D01*
X6573Y7493D01*
Y8883D01*
X6623Y8893D01*
X6655Y8816D01*
X6718Y8734D01*
X6801Y8670D01*
X6897Y8631D01*
X6950Y8624D01*
Y9016D01*
Y9408D01*
X6897Y9401D01*
X6801Y9361D01*
X6718Y9298D01*
X6655Y9215D01*
X6623Y9138D01*
X6573Y9148D01*
Y9568D01*
X6605Y9605D01*
X6623Y9605D01*
X7395D01*
Y10395D01*
X6623D01*
X6605Y10395D01*
X6573Y10432D01*
Y14650D01*
X6561Y14709D01*
X6528Y14758D01*
X6363Y14924D01*
X6373Y15000D01*
X6362Y15078D01*
X6332Y15151D01*
X6284Y15214D01*
X6221Y15262D01*
X6148Y15292D01*
X6070Y15303D01*
X5992Y15292D01*
X5919Y15262D01*
X5856Y15214D01*
X5809Y15153D01*
X5563D01*
X3366Y17350D01*
X3385Y17397D01*
X3399Y17500D01*
X3385Y17603D01*
X3345Y17699D01*
X3282Y17782D01*
X3199Y17845D01*
X3103Y17885D01*
X3000Y17899D01*
X2897Y17885D01*
X2801Y17845D01*
X2718Y17782D01*
X2655Y17699D01*
X2615Y17603D01*
X2601Y17500D01*
X2615Y17397D01*
X2655Y17301D01*
X2718Y17218D01*
X2801Y17155D01*
X2897Y17115D01*
X3000Y17101D01*
X3103Y17115D01*
X3150Y17134D01*
X5392Y14892D01*
X5441Y14859D01*
X5500Y14847D01*
X5809D01*
X5856Y14786D01*
X5919Y14738D01*
X5992Y14708D01*
X6070Y14697D01*
X6146Y14707D01*
X6267Y14587D01*
Y14300D01*
X5770D01*
Y13700D01*
X6267D01*
Y8449D01*
X6217Y8425D01*
X6177Y8456D01*
X6091Y8491D01*
X6000Y8503D01*
X5909Y8491D01*
X5823Y8456D01*
X5750Y8400D01*
X5709Y8346D01*
X5652Y8348D01*
X5618Y8411D01*
X5525Y8525D01*
X5411Y8618D01*
X5280Y8688D01*
X5139Y8731D01*
X5042Y8740D01*
Y7992D01*
Y7244D01*
X5139Y7253D01*
X5280Y7296D01*
X5411Y7366D01*
X5525Y7459D01*
X5618Y7574D01*
X5688Y7704D01*
X5731Y7845D01*
X5732Y7852D01*
X5784Y7875D01*
X5823Y7844D01*
X5847Y7835D01*
Y4000D01*
X5859Y3941D01*
X5892Y3892D01*
X6650Y3134D01*
X6635Y3098D01*
X6622Y3000D01*
X6635Y2902D01*
X6672Y2811D01*
X6733Y2733D01*
X6811Y2672D01*
X6902Y2635D01*
X7000Y2622D01*
X7098Y2635D01*
X7189Y2672D01*
X7267Y2733D01*
X7328Y2811D01*
X7365Y2902D01*
X7378Y3000D01*
X7365Y3098D01*
X7328Y3189D01*
X7267Y3267D01*
X7189Y3328D01*
X7098Y3365D01*
X7000Y3378D01*
X6902Y3365D01*
X6866Y3350D01*
X6153Y4063D01*
Y7835D01*
X6177Y7844D01*
X6217Y7875D01*
X6267Y7851D01*
Y7430D01*
X6279Y7371D01*
X6312Y7322D01*
X10742Y2892D01*
X10791Y2859D01*
X10850Y2847D01*
X11221D01*
X11238Y2797D01*
X11218Y2782D01*
X11155Y2699D01*
X11115Y2603D01*
X11101Y2500D01*
X11115Y2397D01*
X11155Y2301D01*
X11218Y2218D01*
X11301Y2155D01*
X11397Y2115D01*
X11500Y2101D01*
X11603Y2115D01*
X11699Y2155D01*
X11782Y2218D01*
X11845Y2301D01*
X11885Y2397D01*
X11899Y2500D01*
X11885Y2603D01*
X11845Y2699D01*
X11782Y2782D01*
X11762Y2797D01*
X11779Y2847D01*
X12857D01*
X14337Y1366D01*
X14387Y1333D01*
X14446Y1321D01*
X24974D01*
X25033Y1333D01*
X25083Y1366D01*
X25350Y1634D01*
X25397Y1615D01*
X25500Y1601D01*
X25603Y1615D01*
X25699Y1655D01*
X25782Y1718D01*
X25845Y1801D01*
X25885Y1897D01*
X25899Y2000D01*
X25885Y2103D01*
X25845Y2199D01*
X25782Y2282D01*
X25736Y2317D01*
X25753Y2367D01*
X26000D01*
X26059Y2379D01*
X26108Y2412D01*
X26358Y2662D01*
X26391Y2711D01*
X26403Y2770D01*
Y6427D01*
X28058Y8082D01*
X28091Y8131D01*
X28103Y8190D01*
Y8295D01*
X28153Y8305D01*
X28155Y8301D01*
X28218Y8218D01*
X28301Y8155D01*
X28397Y8115D01*
X28500Y8101D01*
X28603Y8115D01*
X28699Y8155D01*
X28782Y8218D01*
X28845Y8301D01*
X28885Y8397D01*
X28899Y8500D01*
X28885Y8603D01*
X28845Y8699D01*
X28782Y8782D01*
X28699Y8845D01*
X28653Y8864D01*
Y10567D01*
X32158Y14072D01*
X32191Y14121D01*
X32203Y14180D01*
Y15100D01*
X32450D01*
Y15500D01*
X32500D01*
Y15550D01*
X32900D01*
Y15797D01*
X33161D01*
X33185Y15747D01*
X33151Y15702D01*
X33110Y15604D01*
X33097Y15500D01*
X33110Y15396D01*
X33151Y15298D01*
X33215Y15215D01*
X33298Y15151D01*
X33396Y15110D01*
X33500Y15097D01*
X33604Y15110D01*
X33702Y15151D01*
X33785Y15215D01*
X33849Y15298D01*
X33890Y15396D01*
X33903Y15500D01*
X33890Y15604D01*
X33849Y15702D01*
X33815Y15747D01*
X33839Y15797D01*
X34161D01*
X34185Y15747D01*
X34151Y15702D01*
X34110Y15604D01*
X34097Y15500D01*
X34110Y15396D01*
X34151Y15298D01*
X34215Y15215D01*
X34298Y15151D01*
X34347Y15130D01*
Y13543D01*
X29572Y8768D01*
X29539Y8719D01*
X29527Y8660D01*
Y8535D01*
X29503Y8526D01*
X29478Y8506D01*
X29433Y8528D01*
Y8925D01*
X29457Y8934D01*
X29530Y8990D01*
X29586Y9063D01*
X29621Y9149D01*
X29633Y9240D01*
X29621Y9331D01*
X29600Y9383D01*
X31365Y11149D01*
X31402Y11134D01*
X31500Y11121D01*
X31598Y11134D01*
X31689Y11172D01*
X31768Y11232D01*
X31828Y11311D01*
X31866Y11402D01*
X31879Y11500D01*
X31866Y11598D01*
X31828Y11689D01*
X31768Y11768D01*
X31689Y11828D01*
X31598Y11866D01*
X31500Y11879D01*
X31402Y11866D01*
X31311Y11828D01*
X31232Y11768D01*
X31172Y11689D01*
X31134Y11598D01*
X31121Y11500D01*
X31134Y11402D01*
X31149Y11365D01*
X29365Y9582D01*
X29280Y9593D01*
X29189Y9581D01*
X29103Y9546D01*
X29030Y9490D01*
X28974Y9417D01*
X28939Y9331D01*
X28927Y9240D01*
X28939Y9149D01*
X28974Y9063D01*
X29030Y8990D01*
X29103Y8934D01*
X29127Y8925D01*
Y3720D01*
X29139Y3661D01*
X29172Y3612D01*
X29634Y3150D01*
X29615Y3103D01*
X29601Y3000D01*
X29615Y2897D01*
X29655Y2801D01*
X29718Y2718D01*
X29738Y2703D01*
X29721Y2653D01*
X28563D01*
X27366Y3850D01*
X27385Y3897D01*
X27399Y4000D01*
X27385Y4103D01*
X27345Y4199D01*
X27282Y4282D01*
X27199Y4345D01*
X27103Y4385D01*
X27000Y4399D01*
X26897Y4385D01*
X26801Y4345D01*
X26718Y4282D01*
X26655Y4199D01*
X26615Y4103D01*
X26601Y4000D01*
X26615Y3897D01*
X26655Y3801D01*
X26718Y3718D01*
X26801Y3655D01*
X26897Y3615D01*
X27000Y3601D01*
X27103Y3615D01*
X27150Y3634D01*
X28392Y2392D01*
X28441Y2359D01*
X28500Y2347D01*
X29721D01*
X29738Y2297D01*
X29718Y2282D01*
X29655Y2199D01*
X29615Y2103D01*
X29601Y2000D01*
X29615Y1897D01*
X29655Y1801D01*
X29718Y1718D01*
X29801Y1655D01*
X29897Y1615D01*
X30000Y1601D01*
X30103Y1615D01*
X30199Y1655D01*
X30282Y1718D01*
X30345Y1801D01*
X30385Y1897D01*
X30399Y2000D01*
X30385Y2103D01*
X30345Y2199D01*
X30282Y2282D01*
X30262Y2297D01*
X30279Y2347D01*
X30400D01*
X30459Y2359D01*
X30508Y2392D01*
X30875Y2759D01*
X30921Y2740D01*
Y1926D01*
X30933Y1867D01*
X30966Y1817D01*
X31149Y1635D01*
X31134Y1598D01*
X31121Y1500D01*
X31134Y1402D01*
X31172Y1311D01*
X31232Y1232D01*
X31311Y1172D01*
X31402Y1134D01*
X31500Y1121D01*
X31585Y1132D01*
X31609Y1095D01*
X31612Y1088D01*
X31537Y1013D01*
X29203D01*
X27366Y2850D01*
X27385Y2897D01*
X27399Y3000D01*
X27385Y3103D01*
X27345Y3199D01*
X27282Y3282D01*
X27199Y3345D01*
X27103Y3385D01*
X27000Y3399D01*
X26897Y3385D01*
X26801Y3345D01*
X26718Y3282D01*
X26655Y3199D01*
X26615Y3103D01*
X26601Y3000D01*
X26615Y2897D01*
X26655Y2801D01*
X26718Y2718D01*
X26801Y2655D01*
X26897Y2615D01*
X27000Y2601D01*
X27103Y2615D01*
X27150Y2634D01*
X29032Y752D01*
X29081Y719D01*
X29140Y707D01*
X31600D01*
X31659Y719D01*
X31708Y752D01*
X32038Y1082D01*
X32071Y1131D01*
X32083Y1190D01*
Y5070D01*
X32071Y5129D01*
X32038Y5178D01*
X31851Y5365D01*
X31866Y5402D01*
X31879Y5500D01*
X31866Y5598D01*
X31828Y5689D01*
X31799Y5727D01*
X31824Y5777D01*
X32007D01*
X34149Y3635D01*
X34134Y3598D01*
X34121Y3500D01*
X34134Y3402D01*
X34172Y3311D01*
X34232Y3232D01*
X34311Y3172D01*
X34402Y3134D01*
X34500Y3121D01*
X34598Y3134D01*
X34689Y3172D01*
X34768Y3232D01*
X34828Y3311D01*
X34866Y3402D01*
X34879Y3500D01*
X34866Y3598D01*
X34828Y3689D01*
X34768Y3768D01*
X34689Y3828D01*
X34598Y3866D01*
X34500Y3879D01*
X34402Y3866D01*
X34365Y3851D01*
X32178Y6038D01*
X32129Y6071D01*
X32070Y6083D01*
X31200D01*
X31141Y6071D01*
X31092Y6038D01*
X31074Y6020D01*
X31027Y6039D01*
Y8811D01*
X31365Y9149D01*
X31402Y9134D01*
X31500Y9121D01*
X31598Y9134D01*
X31689Y9172D01*
X31768Y9232D01*
X31828Y9311D01*
X31866Y9402D01*
X31879Y9500D01*
X31866Y9598D01*
X31828Y9689D01*
X31768Y9768D01*
X31689Y9828D01*
X31598Y9866D01*
X31500Y9879D01*
X31402Y9866D01*
X31311Y9828D01*
X31232Y9768D01*
X31172Y9689D01*
X31134Y9598D01*
X31121Y9500D01*
X31134Y9402D01*
X31149Y9365D01*
X30766Y8983D01*
X30733Y8933D01*
X30721Y8874D01*
Y3038D01*
X30337Y2653D01*
X30279D01*
X30262Y2703D01*
X30282Y2718D01*
X30345Y2801D01*
X30385Y2897D01*
X30399Y3000D01*
X30385Y3103D01*
X30345Y3199D01*
X30282Y3282D01*
X30199Y3345D01*
X30103Y3385D01*
X30000Y3399D01*
X29897Y3385D01*
X29850Y3366D01*
X29433Y3783D01*
Y7912D01*
X29478Y7934D01*
X29503Y7914D01*
X29589Y7879D01*
X29680Y7867D01*
X29771Y7879D01*
X29857Y7914D01*
X29930Y7970D01*
X29986Y8043D01*
X30021Y8129D01*
X30033Y8220D01*
X30021Y8311D01*
X29986Y8397D01*
X29930Y8470D01*
X29857Y8526D01*
X29833Y8535D01*
Y8597D01*
X34608Y13372D01*
X34641Y13421D01*
X34653Y13480D01*
Y15130D01*
X34702Y15151D01*
X34785Y15215D01*
X34849Y15298D01*
X34890Y15396D01*
X34903Y15500D01*
X34890Y15604D01*
X34849Y15702D01*
X34815Y15747D01*
X34839Y15797D01*
X35057D01*
X36177Y14677D01*
Y5840D01*
X36189Y5781D01*
X36222Y5732D01*
X37062Y4892D01*
X37111Y4859D01*
X37132Y4855D01*
X37155Y4801D01*
X37218Y4718D01*
X37301Y4655D01*
X37397Y4615D01*
X37500Y4601D01*
X37603Y4615D01*
X37699Y4655D01*
X37782Y4718D01*
X37845Y4801D01*
X37885Y4897D01*
X37899Y5000D01*
X37885Y5103D01*
X37845Y5199D01*
X37782Y5282D01*
X37699Y5345D01*
X37603Y5385D01*
X37500Y5399D01*
X37397Y5385D01*
X37301Y5345D01*
X37218Y5282D01*
X37192Y5248D01*
X37142Y5244D01*
X36483Y5903D01*
Y14740D01*
X36471Y14799D01*
X36438Y14848D01*
X35228Y16058D01*
X35179Y16091D01*
X35120Y16103D01*
X32050D01*
X31991Y16091D01*
X31942Y16058D01*
X31909Y16009D01*
X31897Y15950D01*
Y15730D01*
X31852Y15705D01*
X31847Y15705D01*
X31785Y15785D01*
X31702Y15849D01*
X31604Y15890D01*
X31500Y15903D01*
X31396Y15890D01*
X31298Y15849D01*
X31215Y15785D01*
X31151Y15702D01*
X31110Y15604D01*
X31097Y15500D01*
X31110Y15396D01*
X31151Y15298D01*
X31215Y15215D01*
X31298Y15151D01*
X31396Y15110D01*
X31500Y15097D01*
X31604Y15110D01*
X31702Y15151D01*
X31785Y15215D01*
X31847Y15295D01*
X31852Y15295D01*
X31897Y15270D01*
Y14243D01*
X28392Y10738D01*
X28359Y10689D01*
X28347Y10630D01*
Y8864D01*
X28301Y8845D01*
X28218Y8782D01*
X28155Y8699D01*
X28153Y8695D01*
X28103Y8705D01*
Y11295D01*
X28153Y11305D01*
X28155Y11301D01*
X28218Y11218D01*
X28301Y11155D01*
X28397Y11115D01*
X28500Y11101D01*
X28603Y11115D01*
X28699Y11155D01*
X28782Y11218D01*
X28845Y11301D01*
X28885Y11397D01*
X28899Y11500D01*
X28885Y11603D01*
X28845Y11699D01*
X28782Y11782D01*
X28699Y11845D01*
X28603Y11885D01*
X28500Y11899D01*
X28397Y11885D01*
X28301Y11845D01*
X28218Y11782D01*
X28155Y11699D01*
X28153Y11695D01*
X28103Y11705D01*
Y13050D01*
X28091Y13109D01*
X28058Y13158D01*
X27321Y13896D01*
X27328Y13912D01*
X27339Y14000D01*
X27328Y14088D01*
X27294Y14170D01*
X27240Y14240D01*
X27170Y14294D01*
X27088Y14328D01*
X27000Y14339D01*
X26912Y14328D01*
X26830Y14294D01*
X26808Y14276D01*
X26763Y14298D01*
Y16547D01*
X26896Y16679D01*
X26912Y16672D01*
X27000Y16661D01*
X27088Y16672D01*
X27170Y16706D01*
X27240Y16760D01*
X27294Y16830D01*
X27328Y16912D01*
X27339Y17000D01*
X27328Y17088D01*
X27294Y17170D01*
X27240Y17240D01*
X27170Y17294D01*
X27088Y17328D01*
X27000Y17339D01*
X26912Y17328D01*
X26830Y17294D01*
X26760Y17240D01*
X26706Y17170D01*
X26672Y17088D01*
X26661Y17000D01*
X26672Y16912D01*
X26679Y16896D01*
X26502Y16718D01*
X26469Y16669D01*
X26457Y16610D01*
Y12780D01*
X26469Y12721D01*
X26502Y12672D01*
X26847Y12327D01*
Y11779D01*
X26797Y11762D01*
X26782Y11782D01*
X26699Y11845D01*
X26603Y11885D01*
X26500Y11899D01*
X26397Y11885D01*
X26301Y11845D01*
X26218Y11782D01*
X26155Y11699D01*
X26115Y11603D01*
X26101Y11500D01*
X26115Y11397D01*
X26155Y11301D01*
X26218Y11218D01*
X26301Y11155D01*
X26397Y11115D01*
X26500Y11101D01*
X26603Y11115D01*
X26699Y11155D01*
X26782Y11218D01*
X26797Y11238D01*
X26847Y11221D01*
Y9000D01*
X26859Y8941D01*
X26892Y8892D01*
X27134Y8650D01*
X27115Y8603D01*
X27101Y8500D01*
X27115Y8397D01*
X27155Y8301D01*
X27218Y8218D01*
X27301Y8155D01*
X27397Y8115D01*
X27500Y8101D01*
X27586Y8113D01*
X27609Y8065D01*
X26142Y6598D01*
X26109Y6549D01*
X26097Y6490D01*
Y2833D01*
X25937Y2673D01*
X25797D01*
X25794Y2682D01*
X25786Y2723D01*
X25845Y2801D01*
X25885Y2897D01*
X25899Y3000D01*
X25885Y3103D01*
X25845Y3199D01*
X25782Y3282D01*
X25699Y3345D01*
X25603Y3385D01*
X25500Y3399D01*
X25397Y3385D01*
X25301Y3345D01*
X25218Y3282D01*
X25155Y3199D01*
X25115Y3103D01*
X25101Y3000D01*
X25115Y2897D01*
X25155Y2801D01*
X25214Y2723D01*
X25206Y2682D01*
X25203Y2673D01*
X22797D01*
X22794Y2682D01*
X22786Y2723D01*
X22845Y2801D01*
X22885Y2897D01*
X22899Y3000D01*
X22885Y3103D01*
X22845Y3199D01*
X22782Y3282D01*
X22699Y3345D01*
X22603Y3385D01*
X22500Y3399D01*
X22397Y3385D01*
X22301Y3345D01*
X22218Y3282D01*
X22173Y3223D01*
X22123Y3240D01*
Y3760D01*
X22173Y3777D01*
X22218Y3718D01*
X22301Y3655D01*
X22397Y3615D01*
X22500Y3601D01*
X22603Y3615D01*
X22699Y3655D01*
X22782Y3718D01*
X22845Y3801D01*
X22885Y3897D01*
X22899Y4000D01*
X22885Y4103D01*
X22845Y4199D01*
X22782Y4282D01*
X22699Y4345D01*
X22603Y4385D01*
X22500Y4399D01*
X22397Y4385D01*
X22301Y4345D01*
X22218Y4282D01*
X22173Y4223D01*
X22123Y4240D01*
Y4605D01*
X22895D01*
Y5179D01*
X23058Y5342D01*
X23091Y5391D01*
X23103Y5450D01*
Y8295D01*
X23153Y8305D01*
X23155Y8301D01*
X23218Y8218D01*
X23301Y8155D01*
X23397Y8115D01*
X23500Y8101D01*
X23603Y8115D01*
X23699Y8155D01*
X23782Y8218D01*
X23845Y8301D01*
X23885Y8397D01*
X23899Y8500D01*
X23885Y8603D01*
X23845Y8699D01*
X23782Y8782D01*
X23699Y8845D01*
X23603Y8885D01*
X23500Y8899D01*
X23397Y8885D01*
X23301Y8845D01*
X23218Y8782D01*
X23155Y8699D01*
X23153Y8695D01*
X23103Y8705D01*
Y11295D01*
X23153Y11305D01*
X23155Y11301D01*
X23218Y11218D01*
X23301Y11155D01*
X23397Y11115D01*
X23500Y11101D01*
X23603Y11115D01*
X23699Y11155D01*
X23782Y11218D01*
X23845Y11301D01*
X23885Y11397D01*
X23899Y11500D01*
X23885Y11603D01*
X23845Y11699D01*
X23782Y11782D01*
X23699Y11845D01*
X23603Y11885D01*
X23500Y11899D01*
X23397Y11885D01*
X23301Y11845D01*
X23218Y11782D01*
X23155Y11699D01*
X23153Y11695D01*
X23103Y11705D01*
Y12161D01*
X23091Y12220D01*
X23058Y12270D01*
X17220Y18108D01*
X17170Y18141D01*
X17111Y18153D01*
X6331D01*
X6284Y18214D01*
X6221Y18262D01*
X6148Y18292D01*
X6070Y18303D01*
D02*
G37*
G36*
X24550Y11892D02*
Y11550D01*
X24892D01*
X24885Y11603D01*
X24845Y11699D01*
X24782Y11782D01*
X24699Y11845D01*
X24603Y11885D01*
X24550Y11892D01*
D02*
G37*
G36*
X4942Y12756D02*
X4845Y12747D01*
X4704Y12704D01*
X4574Y12634D01*
X4460Y12541D01*
X4366Y12426D01*
X4296Y12296D01*
X4253Y12155D01*
X4244Y12058D01*
X4942D01*
Y12756D01*
D02*
G37*
G36*
X34450Y1872D02*
X34402Y1866D01*
X34311Y1828D01*
X34232Y1768D01*
X34172Y1689D01*
X34134Y1598D01*
X34128Y1550D01*
X34450D01*
Y1872D01*
D02*
G37*
G36*
X5042Y12756D02*
Y12058D01*
X5740D01*
X5731Y12155D01*
X5688Y12296D01*
X5618Y12426D01*
X5525Y12541D01*
X5411Y12634D01*
X5280Y12704D01*
X5139Y12747D01*
X5042Y12756D01*
D02*
G37*
G36*
X5740Y11958D02*
X5042D01*
Y11260D01*
X5139Y11269D01*
X5280Y11312D01*
X5411Y11382D01*
X5525Y11475D01*
X5618Y11589D01*
X5688Y11720D01*
X5731Y11861D01*
X5740Y11958D01*
D02*
G37*
G36*
X4942D02*
X4244D01*
X4253Y11861D01*
X4296Y11720D01*
X4366Y11589D01*
X4460Y11475D01*
X4574Y11382D01*
X4704Y11312D01*
X4845Y11269D01*
X4942Y11260D01*
Y11958D01*
D02*
G37*
G36*
X27000Y2399D02*
X26897Y2385D01*
X26801Y2345D01*
X26718Y2282D01*
X26655Y2199D01*
X26615Y2103D01*
X26601Y2000D01*
X26615Y1897D01*
X26655Y1801D01*
X26718Y1718D01*
X26801Y1655D01*
X26897Y1615D01*
X27000Y1601D01*
X27103Y1615D01*
X27199Y1655D01*
X27282Y1718D01*
X27345Y1801D01*
X27385Y1897D01*
X27399Y2000D01*
X27385Y2103D01*
X27345Y2199D01*
X27282Y2282D01*
X27199Y2345D01*
X27103Y2385D01*
X27000Y2399D01*
D02*
G37*
G36*
X34550Y1872D02*
Y1550D01*
X34872D01*
X34866Y1598D01*
X34828Y1689D01*
X34768Y1768D01*
X34689Y1828D01*
X34598Y1866D01*
X34550Y1872D01*
D02*
G37*
G36*
X24450Y11892D02*
X24397Y11885D01*
X24301Y11845D01*
X24218Y11782D01*
X24155Y11699D01*
X24115Y11603D01*
X24108Y11550D01*
X24450D01*
Y11892D01*
D02*
G37*
G36*
X23950Y13950D02*
X23667D01*
X23672Y13912D01*
X23706Y13830D01*
X23760Y13760D01*
X23830Y13706D01*
X23912Y13672D01*
X23950Y13667D01*
Y13950D01*
D02*
G37*
G36*
X40000Y1899D02*
X39897Y1885D01*
X39801Y1845D01*
X39718Y1782D01*
X39655Y1699D01*
X39615Y1603D01*
X39601Y1500D01*
X39615Y1397D01*
X39655Y1301D01*
X39718Y1218D01*
X39801Y1155D01*
X39897Y1115D01*
X40000Y1101D01*
X40103Y1115D01*
X40199Y1155D01*
X40282Y1218D01*
X40345Y1301D01*
X40385Y1397D01*
X40399Y1500D01*
X40385Y1603D01*
X40345Y1699D01*
X40282Y1782D01*
X40199Y1845D01*
X40103Y1885D01*
X40000Y1899D01*
D02*
G37*
G36*
X24333Y16950D02*
X24000D01*
X23667D01*
X23672Y16912D01*
X23706Y16830D01*
X23760Y16760D01*
X23830Y16706D01*
X23847Y16699D01*
Y14301D01*
X23830Y14294D01*
X23760Y14240D01*
X23706Y14170D01*
X23672Y14088D01*
X23667Y14050D01*
X24000D01*
Y14000D01*
D01*
Y14050D01*
X24333D01*
X24328Y14088D01*
X24294Y14170D01*
X24240Y14240D01*
X24170Y14294D01*
X24153Y14301D01*
Y16699D01*
X24170Y16706D01*
X24240Y16760D01*
X24294Y16830D01*
X24328Y16912D01*
X24333Y16950D01*
D02*
G37*
G36*
Y13950D02*
X24050D01*
Y13667D01*
X24088Y13672D01*
X24170Y13706D01*
X24240Y13760D01*
X24294Y13830D01*
X24328Y13912D01*
X24333Y13950D01*
D02*
G37*
G36*
X34872Y1450D02*
X34550D01*
Y1128D01*
X34598Y1134D01*
X34689Y1172D01*
X34768Y1232D01*
X34828Y1311D01*
X34866Y1402D01*
X34872Y1450D01*
D02*
G37*
G36*
X34450D02*
X34128D01*
X34134Y1402D01*
X34172Y1311D01*
X34232Y1232D01*
X34311Y1172D01*
X34402Y1134D01*
X34450Y1128D01*
Y1450D01*
D02*
G37*
%LPD*%
G36*
X38887Y13497D02*
Y10000D01*
X38899Y9941D01*
X38932Y9892D01*
X39148Y9676D01*
X39129Y9629D01*
X38863D01*
X38553Y9940D01*
Y12805D01*
X38795D01*
Y13523D01*
X38841Y13542D01*
X38887Y13497D01*
D02*
G37*
G36*
X41478Y8275D02*
Y8235D01*
X41448Y8163D01*
X41393Y8108D01*
X41321Y8078D01*
X40825D01*
X40782Y8096D01*
X40748Y8129D01*
X40730Y8172D01*
Y8196D01*
Y8938D01*
X41478D01*
Y8275D01*
D02*
G37*
G36*
X41393Y11869D02*
X41448Y11813D01*
X41478Y11741D01*
Y11702D01*
Y11038D01*
X40730D01*
Y11781D01*
Y11804D01*
X40748Y11847D01*
X40782Y11881D01*
X40825Y11899D01*
X41321D01*
X41393Y11869D01*
D02*
G37*
G36*
X25264Y2317D02*
X25218Y2282D01*
X25155Y2199D01*
X25115Y2103D01*
X25101Y2000D01*
X25115Y1897D01*
X25134Y1850D01*
X24911Y1627D01*
X22746D01*
X22729Y1677D01*
X22782Y1718D01*
X22845Y1801D01*
X22885Y1897D01*
X22899Y2000D01*
X22885Y2103D01*
X22845Y2199D01*
X22782Y2282D01*
X22736Y2317D01*
X22753Y2367D01*
X25247D01*
X25264Y2317D01*
D02*
G37*
G36*
X16407Y7377D02*
Y3240D01*
X16419Y3181D01*
X16452Y3132D01*
X17349Y2235D01*
X17334Y2198D01*
X17321Y2100D01*
X17331Y2026D01*
X17284Y2003D01*
X17178Y2108D01*
X17129Y2141D01*
X17070Y2153D01*
X15635D01*
X15615Y2199D01*
X15738Y2322D01*
X15771Y2371D01*
X15783Y2430D01*
Y6750D01*
X15771Y6809D01*
X15738Y6858D01*
X15203Y7393D01*
Y8105D01*
X15679D01*
X16407Y7377D01*
D02*
G37*
G36*
X31311Y5172D02*
X31402Y5134D01*
X31500Y5121D01*
X31598Y5134D01*
X31635Y5149D01*
X31777Y5007D01*
Y3824D01*
X31727Y3799D01*
X31689Y3828D01*
X31598Y3866D01*
X31500Y3879D01*
X31402Y3866D01*
X31311Y3828D01*
X31277Y3803D01*
X31227Y3827D01*
Y5173D01*
X31277Y5197D01*
X31311Y5172D01*
D02*
G37*
G36*
X26830Y13706D02*
X26912Y13672D01*
X27000Y13661D01*
X27088Y13672D01*
X27104Y13679D01*
X27797Y12987D01*
Y11833D01*
X27747Y11809D01*
X27699Y11845D01*
X27603Y11885D01*
X27500Y11899D01*
X27397Y11885D01*
X27301Y11845D01*
X27218Y11782D01*
X27203Y11762D01*
X27153Y11779D01*
Y12390D01*
X27141Y12449D01*
X27108Y12498D01*
X26763Y12843D01*
Y13702D01*
X26808Y13724D01*
X26830Y13706D01*
D02*
G37*
G36*
X27218Y11218D02*
X27301Y11155D01*
X27397Y11115D01*
X27500Y11101D01*
X27603Y11115D01*
X27699Y11155D01*
X27747Y11191D01*
X27797Y11167D01*
Y8833D01*
X27747Y8809D01*
X27699Y8845D01*
X27603Y8885D01*
X27500Y8899D01*
X27397Y8885D01*
X27350Y8866D01*
X27153Y9063D01*
Y11221D01*
X27203Y11238D01*
X27218Y11218D01*
D02*
G37*
G36*
X20934Y13961D02*
X20916Y13909D01*
X20859Y13901D01*
X20773Y13866D01*
X20700Y13810D01*
X20644Y13737D01*
X20609Y13651D01*
X20597Y13560D01*
X20609Y13469D01*
X20644Y13383D01*
X20700Y13310D01*
X20773Y13254D01*
X20797Y13245D01*
Y11833D01*
X20747Y11809D01*
X20699Y11845D01*
X20603Y11885D01*
X20500Y11899D01*
X20397Y11885D01*
X20301Y11845D01*
X20218Y11782D01*
X20155Y11699D01*
X20115Y11603D01*
X20101Y11500D01*
X20115Y11397D01*
X20155Y11301D01*
X20218Y11218D01*
X20301Y11155D01*
X20397Y11115D01*
X20500Y11101D01*
X20603Y11115D01*
X20699Y11155D01*
X20747Y11191D01*
X20797Y11167D01*
Y9013D01*
X20650Y8866D01*
X20603Y8885D01*
X20500Y8899D01*
X20397Y8885D01*
X20301Y8845D01*
X20218Y8782D01*
X20155Y8699D01*
X20115Y8603D01*
X20101Y8500D01*
X20115Y8397D01*
X20155Y8301D01*
X20218Y8218D01*
X20301Y8155D01*
X20397Y8115D01*
X20500Y8101D01*
X20603Y8115D01*
X20699Y8155D01*
X20782Y8218D01*
X20845Y8301D01*
X20885Y8397D01*
X20899Y8500D01*
X20885Y8603D01*
X20866Y8650D01*
X21058Y8842D01*
X21091Y8891D01*
X21103Y8950D01*
Y11295D01*
X21153Y11305D01*
X21155Y11301D01*
X21218Y11218D01*
X21301Y11155D01*
X21397Y11115D01*
X21500Y11101D01*
X21603Y11115D01*
X21699Y11155D01*
X21782Y11218D01*
X21845Y11301D01*
X21885Y11397D01*
X21899Y11500D01*
X21885Y11603D01*
X21845Y11699D01*
X21782Y11782D01*
X21699Y11845D01*
X21603Y11885D01*
X21500Y11899D01*
X21397Y11885D01*
X21301Y11845D01*
X21218Y11782D01*
X21155Y11699D01*
X21153Y11695D01*
X21103Y11705D01*
Y13245D01*
X21127Y13254D01*
X21200Y13310D01*
X21256Y13383D01*
X21291Y13469D01*
X21299Y13526D01*
X21351Y13544D01*
X22797Y12098D01*
Y11833D01*
X22747Y11809D01*
X22699Y11845D01*
X22603Y11885D01*
X22500Y11899D01*
X22397Y11885D01*
X22301Y11845D01*
X22218Y11782D01*
X22155Y11699D01*
X22115Y11603D01*
X22101Y11500D01*
X22115Y11397D01*
X22155Y11301D01*
X22218Y11218D01*
X22301Y11155D01*
X22397Y11115D01*
X22500Y11101D01*
X22603Y11115D01*
X22699Y11155D01*
X22747Y11191D01*
X22797Y11167D01*
Y8833D01*
X22747Y8809D01*
X22699Y8845D01*
X22603Y8885D01*
X22550Y8892D01*
Y8500D01*
Y8108D01*
X22603Y8115D01*
X22699Y8155D01*
X22747Y8191D01*
X22797Y8167D01*
Y5513D01*
X22679Y5395D01*
X22105D01*
Y5022D01*
X22055Y5002D01*
X21848Y5208D01*
X21799Y5241D01*
X21740Y5253D01*
X18043D01*
X18028Y5289D01*
X17968Y5368D01*
X17889Y5428D01*
X17798Y5466D01*
X17700Y5479D01*
X17602Y5466D01*
X17511Y5428D01*
X17432Y5368D01*
X17372Y5289D01*
X17334Y5198D01*
X17321Y5100D01*
X17334Y5002D01*
X17372Y4911D01*
X17432Y4832D01*
X17511Y4772D01*
X17602Y4734D01*
X17700Y4721D01*
X17798Y4734D01*
X17889Y4772D01*
X17968Y4832D01*
X18028Y4911D01*
X18043Y4947D01*
X21677D01*
X21817Y4807D01*
Y2750D01*
X21829Y2691D01*
X21862Y2642D01*
X22092Y2412D01*
X22141Y2379D01*
X22200Y2367D01*
X22247D01*
X22264Y2317D01*
X22218Y2282D01*
X22155Y2199D01*
X22115Y2103D01*
X22101Y2000D01*
X22115Y1897D01*
X22155Y1801D01*
X22218Y1718D01*
X22271Y1677D01*
X22254Y1627D01*
X18609D01*
X18590Y1674D01*
X19935Y3019D01*
X19992Y2996D01*
X20100Y2981D01*
X20208Y2996D01*
X20309Y3038D01*
X20396Y3104D01*
X20462Y3191D01*
X20504Y3292D01*
X20519Y3400D01*
X20504Y3508D01*
X20462Y3609D01*
X20396Y3696D01*
X20309Y3762D01*
X20208Y3804D01*
X20100Y3819D01*
X19992Y3804D01*
X19891Y3762D01*
X19804Y3696D01*
X19738Y3609D01*
X19696Y3508D01*
X19681Y3400D01*
X19696Y3292D01*
X19719Y3235D01*
X18311Y1827D01*
X18027D01*
X18003Y1877D01*
X18028Y1911D01*
X18066Y2002D01*
X18079Y2100D01*
X18066Y2198D01*
X18028Y2289D01*
X17968Y2368D01*
X17889Y2428D01*
X17798Y2466D01*
X17700Y2479D01*
X17602Y2466D01*
X17565Y2451D01*
X16713Y3303D01*
Y7440D01*
X16701Y7499D01*
X16668Y7548D01*
X15895Y8321D01*
Y8895D01*
X15203D01*
Y10987D01*
X15350Y11134D01*
X15397Y11115D01*
X15500Y11101D01*
X15603Y11115D01*
X15699Y11155D01*
X15782Y11218D01*
X15845Y11301D01*
X15885Y11397D01*
X15899Y11500D01*
X15885Y11603D01*
X15845Y11699D01*
X15782Y11782D01*
X15699Y11845D01*
X15653Y11864D01*
Y15437D01*
X16896Y16679D01*
X16912Y16672D01*
X17000Y16661D01*
X17088Y16672D01*
X17170Y16706D01*
X17240Y16760D01*
X17294Y16830D01*
X17328Y16912D01*
X17339Y17000D01*
X17328Y17088D01*
X17294Y17170D01*
X17240Y17240D01*
X17170Y17294D01*
X17088Y17328D01*
X17000Y17339D01*
X16912Y17328D01*
X16830Y17294D01*
X16760Y17240D01*
X16706Y17170D01*
X16672Y17088D01*
X16661Y17000D01*
X16672Y16912D01*
X16679Y16896D01*
X15392Y15608D01*
X15359Y15559D01*
X15347Y15500D01*
Y11864D01*
X15301Y11845D01*
X15218Y11782D01*
X15155Y11699D01*
X15115Y11603D01*
X15101Y11500D01*
X15115Y11397D01*
X15134Y11350D01*
X14942Y11158D01*
X14909Y11109D01*
X14897Y11050D01*
Y7330D01*
X14909Y7271D01*
X14942Y7222D01*
X15477Y6687D01*
Y5324D01*
X15427Y5299D01*
X15389Y5328D01*
X15298Y5366D01*
X15200Y5379D01*
X15102Y5366D01*
X15011Y5328D01*
X14932Y5268D01*
X14872Y5189D01*
X14834Y5098D01*
X14821Y5000D01*
X14834Y4902D01*
X14872Y4811D01*
X14932Y4732D01*
X15011Y4672D01*
X15102Y4634D01*
X15200Y4621D01*
X15298Y4634D01*
X15389Y4672D01*
X15427Y4701D01*
X15477Y4676D01*
Y2493D01*
X15399Y2415D01*
X15353Y2435D01*
Y2860D01*
X15341Y2919D01*
X15308Y2968D01*
X12668Y5608D01*
X12619Y5641D01*
X12560Y5653D01*
X11864D01*
X11845Y5699D01*
X11782Y5782D01*
X11699Y5845D01*
X11603Y5885D01*
X11500Y5899D01*
X11397Y5885D01*
X11301Y5845D01*
X11218Y5782D01*
X11155Y5699D01*
X11115Y5603D01*
X11101Y5500D01*
X11115Y5397D01*
X11155Y5301D01*
X11218Y5218D01*
X11301Y5155D01*
X11397Y5115D01*
X11500Y5101D01*
X11603Y5115D01*
X11699Y5155D01*
X11782Y5218D01*
X11845Y5301D01*
X11864Y5347D01*
X12497D01*
X15047Y2797D01*
Y2343D01*
X15011Y2328D01*
X14932Y2268D01*
X14872Y2189D01*
X14834Y2098D01*
X14821Y2000D01*
X14834Y1902D01*
X14872Y1811D01*
X14932Y1732D01*
X15004Y1677D01*
X15001Y1651D01*
X14990Y1627D01*
X14509D01*
X13028Y3108D01*
X12979Y3141D01*
X12920Y3153D01*
X11779D01*
X11762Y3203D01*
X11782Y3218D01*
X11845Y3301D01*
X11885Y3397D01*
X11899Y3500D01*
X11885Y3603D01*
X11845Y3699D01*
X11782Y3782D01*
X11699Y3845D01*
X11603Y3885D01*
X11500Y3899D01*
X11397Y3885D01*
X11350Y3866D01*
X10923Y4293D01*
Y7067D01*
X12475Y8619D01*
X12499Y8609D01*
X12590Y8597D01*
X12681Y8609D01*
X12767Y8644D01*
X12840Y8700D01*
X12896Y8773D01*
X12931Y8859D01*
X12943Y8950D01*
X12931Y9041D01*
X12896Y9127D01*
X12840Y9200D01*
X12767Y9256D01*
X12681Y9291D01*
X12590Y9303D01*
X12499Y9291D01*
X12413Y9256D01*
X12340Y9200D01*
X12284Y9127D01*
X12249Y9041D01*
X12237Y8950D01*
X12249Y8859D01*
X12259Y8835D01*
X11884Y8461D01*
X11837Y8484D01*
X11839Y8500D01*
X11828Y8588D01*
X11821Y8604D01*
X11998Y8782D01*
X12031Y8831D01*
X12043Y8890D01*
Y13350D01*
X12031Y13409D01*
X11998Y13458D01*
X11353Y14103D01*
Y16637D01*
X11865Y17149D01*
X11902Y17134D01*
X12000Y17121D01*
X12098Y17134D01*
X12189Y17172D01*
X12268Y17232D01*
X12328Y17311D01*
X12366Y17402D01*
X12379Y17500D01*
X12366Y17598D01*
X12328Y17689D01*
X12268Y17768D01*
X12230Y17797D01*
X12247Y17847D01*
X17048D01*
X20934Y13961D01*
D02*
G37*
G36*
X31777Y3176D02*
Y1824D01*
X31727Y1799D01*
X31689Y1828D01*
X31598Y1866D01*
X31500Y1879D01*
X31402Y1866D01*
X31365Y1851D01*
X31227Y1989D01*
Y3173D01*
X31277Y3197D01*
X31311Y3172D01*
X31402Y3134D01*
X31500Y3121D01*
X31598Y3134D01*
X31689Y3172D01*
X31727Y3201D01*
X31777Y3176D01*
D02*
G37*
G36*
X17180Y1674D02*
X17161Y1627D01*
X15410D01*
X15399Y1651D01*
X15396Y1677D01*
X15468Y1732D01*
X15528Y1811D01*
X15543Y1847D01*
X17007D01*
X17180Y1674D01*
D02*
G37*
%LPC*%
G36*
X20100Y2819D02*
X19992Y2804D01*
X19891Y2762D01*
X19804Y2696D01*
X19738Y2609D01*
X19696Y2508D01*
X19681Y2400D01*
X19696Y2292D01*
X19738Y2191D01*
X19804Y2104D01*
X19891Y2038D01*
X19992Y1996D01*
X20100Y1981D01*
X20208Y1996D01*
X20309Y2038D01*
X20396Y2104D01*
X20462Y2191D01*
X20504Y2292D01*
X20519Y2400D01*
X20504Y2508D01*
X20462Y2609D01*
X20396Y2696D01*
X20309Y2762D01*
X20208Y2804D01*
X20100Y2819D01*
D02*
G37*
G36*
X20050Y4350D02*
X19685D01*
Y3985D01*
X20050D01*
Y4350D01*
D02*
G37*
G36*
X16450Y11450D02*
X16108D01*
X16115Y11397D01*
X16155Y11301D01*
X16218Y11218D01*
X16301Y11155D01*
X16397Y11115D01*
X16450Y11108D01*
Y11450D01*
D02*
G37*
G36*
X16892D02*
X16550D01*
Y11108D01*
X16603Y11115D01*
X16699Y11155D01*
X16782Y11218D01*
X16845Y11301D01*
X16885Y11397D01*
X16892Y11450D01*
D02*
G37*
G36*
X16450Y11892D02*
X16397Y11885D01*
X16301Y11845D01*
X16218Y11782D01*
X16155Y11699D01*
X16115Y11603D01*
X16108Y11550D01*
X16450D01*
Y11892D01*
D02*
G37*
G36*
X19500Y11899D02*
X19397Y11885D01*
X19301Y11845D01*
X19218Y11782D01*
X19155Y11699D01*
X19115Y11603D01*
X19101Y11500D01*
X19115Y11397D01*
X19155Y11301D01*
X19218Y11218D01*
X19301Y11155D01*
X19397Y11115D01*
X19500Y11101D01*
X19603Y11115D01*
X19699Y11155D01*
X19782Y11218D01*
X19845Y11301D01*
X19885Y11397D01*
X19899Y11500D01*
X19885Y11603D01*
X19845Y11699D01*
X19782Y11782D01*
X19699Y11845D01*
X19603Y11885D01*
X19500Y11899D01*
D02*
G37*
G36*
X22450Y8892D02*
X22397Y8885D01*
X22301Y8845D01*
X22218Y8782D01*
X22155Y8699D01*
X22115Y8603D01*
X22108Y8550D01*
X22450D01*
Y8892D01*
D02*
G37*
G36*
X17500Y11899D02*
X17397Y11885D01*
X17301Y11845D01*
X17218Y11782D01*
X17155Y11699D01*
X17115Y11603D01*
X17101Y11500D01*
X17115Y11397D01*
X17155Y11301D01*
X17218Y11218D01*
X17301Y11155D01*
X17397Y11115D01*
X17500Y11101D01*
X17603Y11115D01*
X17699Y11155D01*
X17782Y11218D01*
X17845Y11301D01*
X17885Y11397D01*
X17899Y11500D01*
X17885Y11603D01*
X17845Y11699D01*
X17782Y11782D01*
X17699Y11845D01*
X17603Y11885D01*
X17500Y11899D01*
D02*
G37*
G36*
X18500D02*
X18397Y11885D01*
X18301Y11845D01*
X18218Y11782D01*
X18155Y11699D01*
X18115Y11603D01*
X18101Y11500D01*
X18115Y11397D01*
X18155Y11301D01*
X18218Y11218D01*
X18301Y11155D01*
X18397Y11115D01*
X18500Y11101D01*
X18603Y11115D01*
X18699Y11155D01*
X18782Y11218D01*
X18845Y11301D01*
X18885Y11397D01*
X18899Y11500D01*
X18885Y11603D01*
X18845Y11699D01*
X18782Y11782D01*
X18699Y11845D01*
X18603Y11885D01*
X18500Y11899D01*
D02*
G37*
G36*
X16950Y14333D02*
X16912Y14328D01*
X16830Y14294D01*
X16760Y14240D01*
X16706Y14170D01*
X16672Y14088D01*
X16667Y14050D01*
X16950D01*
Y14333D01*
D02*
G37*
G36*
X17050D02*
Y14050D01*
X17333D01*
X17328Y14088D01*
X17294Y14170D01*
X17240Y14240D01*
X17170Y14294D01*
X17088Y14328D01*
X17050Y14333D01*
D02*
G37*
G36*
X12000Y14879D02*
X11902Y14866D01*
X11811Y14828D01*
X11732Y14768D01*
X11672Y14689D01*
X11634Y14598D01*
X11621Y14500D01*
X11634Y14402D01*
X11672Y14311D01*
X11732Y14232D01*
X11811Y14172D01*
X11902Y14134D01*
X12000Y14121D01*
X12098Y14134D01*
X12189Y14172D01*
X12268Y14232D01*
X12328Y14311D01*
X12366Y14402D01*
X12379Y14500D01*
X12366Y14598D01*
X12328Y14689D01*
X12268Y14768D01*
X12189Y14828D01*
X12098Y14866D01*
X12000Y14879D01*
D02*
G37*
G36*
X17333Y13950D02*
X17050D01*
Y13667D01*
X17088Y13672D01*
X17170Y13706D01*
X17240Y13760D01*
X17294Y13830D01*
X17328Y13912D01*
X17333Y13950D01*
D02*
G37*
G36*
X16550Y11892D02*
Y11550D01*
X16892D01*
X16885Y11603D01*
X16845Y11699D01*
X16782Y11782D01*
X16699Y11845D01*
X16603Y11885D01*
X16550Y11892D01*
D02*
G37*
G36*
X20000Y14339D02*
X19912Y14328D01*
X19830Y14294D01*
X19760Y14240D01*
X19706Y14170D01*
X19672Y14088D01*
X19661Y14000D01*
X19672Y13912D01*
X19706Y13830D01*
X19760Y13760D01*
X19830Y13706D01*
X19912Y13672D01*
X20000Y13661D01*
X20088Y13672D01*
X20170Y13706D01*
X20240Y13760D01*
X20294Y13830D01*
X20328Y13912D01*
X20339Y14000D01*
X20328Y14088D01*
X20294Y14170D01*
X20240Y14240D01*
X20170Y14294D01*
X20088Y14328D01*
X20000Y14339D01*
D02*
G37*
G36*
X16950Y13950D02*
X16667D01*
X16672Y13912D01*
X16706Y13830D01*
X16760Y13760D01*
X16830Y13706D01*
X16912Y13672D01*
X16950Y13667D01*
Y13950D01*
D02*
G37*
G36*
X20515Y4815D02*
X20150D01*
Y4450D01*
X20515D01*
Y4815D01*
D02*
G37*
G36*
X11450Y4892D02*
X11397Y4885D01*
X11301Y4845D01*
X11218Y4782D01*
X11155Y4699D01*
X11115Y4603D01*
X11108Y4550D01*
X11450D01*
Y4892D01*
D02*
G37*
G36*
X11550D02*
Y4550D01*
X11892D01*
X11885Y4603D01*
X11845Y4699D01*
X11782Y4782D01*
X11699Y4845D01*
X11603Y4885D01*
X11550Y4892D01*
D02*
G37*
G36*
X20050Y4815D02*
X19685D01*
Y4450D01*
X20050D01*
Y4815D01*
D02*
G37*
G36*
X20515Y4350D02*
X20150D01*
Y3985D01*
X20515D01*
Y4350D01*
D02*
G37*
G36*
X11450Y4450D02*
X11108D01*
X11115Y4397D01*
X11155Y4301D01*
X11218Y4218D01*
X11301Y4155D01*
X11397Y4115D01*
X11450Y4108D01*
Y4450D01*
D02*
G37*
G36*
X11892D02*
X11550D01*
Y4108D01*
X11603Y4115D01*
X11699Y4155D01*
X11782Y4218D01*
X11845Y4301D01*
X11885Y4397D01*
X11892Y4450D01*
D02*
G37*
G36*
X19500Y8899D02*
X19397Y8885D01*
X19301Y8845D01*
X19218Y8782D01*
X19155Y8699D01*
X19115Y8603D01*
X19101Y8500D01*
X19115Y8397D01*
X19155Y8301D01*
X19218Y8218D01*
X19301Y8155D01*
X19397Y8115D01*
X19500Y8101D01*
X19603Y8115D01*
X19699Y8155D01*
X19782Y8218D01*
X19845Y8301D01*
X19885Y8397D01*
X19899Y8500D01*
X19885Y8603D01*
X19845Y8699D01*
X19782Y8782D01*
X19699Y8845D01*
X19603Y8885D01*
X19500Y8899D01*
D02*
G37*
G36*
X21500D02*
X21397Y8885D01*
X21301Y8845D01*
X21218Y8782D01*
X21155Y8699D01*
X21115Y8603D01*
X21101Y8500D01*
X21115Y8397D01*
X21155Y8301D01*
X21218Y8218D01*
X21301Y8155D01*
X21397Y8115D01*
X21500Y8101D01*
X21603Y8115D01*
X21699Y8155D01*
X21782Y8218D01*
X21845Y8301D01*
X21885Y8397D01*
X21899Y8500D01*
X21885Y8603D01*
X21845Y8699D01*
X21782Y8782D01*
X21699Y8845D01*
X21603Y8885D01*
X21500Y8899D01*
D02*
G37*
G36*
X22450Y8450D02*
X22108D01*
X22115Y8397D01*
X22155Y8301D01*
X22218Y8218D01*
X22301Y8155D01*
X22397Y8115D01*
X22450Y8108D01*
Y8450D01*
D02*
G37*
G36*
X18500Y8899D02*
X18397Y8885D01*
X18301Y8845D01*
X18218Y8782D01*
X18155Y8699D01*
X18115Y8603D01*
X18101Y8500D01*
X18115Y8397D01*
X18155Y8301D01*
X18218Y8218D01*
X18301Y8155D01*
X18397Y8115D01*
X18500Y8101D01*
X18603Y8115D01*
X18699Y8155D01*
X18782Y8218D01*
X18845Y8301D01*
X18885Y8397D01*
X18899Y8500D01*
X18885Y8603D01*
X18845Y8699D01*
X18782Y8782D01*
X18699Y8845D01*
X18603Y8885D01*
X18500Y8899D01*
D02*
G37*
G36*
X11895Y6895D02*
X11105D01*
Y6105D01*
X11895D01*
Y6895D01*
D02*
G37*
G36*
X16500Y8899D02*
X16397Y8885D01*
X16301Y8845D01*
X16218Y8782D01*
X16155Y8699D01*
X16115Y8603D01*
X16101Y8500D01*
X16115Y8397D01*
X16155Y8301D01*
X16218Y8218D01*
X16301Y8155D01*
X16397Y8115D01*
X16500Y8101D01*
X16603Y8115D01*
X16699Y8155D01*
X16782Y8218D01*
X16845Y8301D01*
X16885Y8397D01*
X16899Y8500D01*
X16885Y8603D01*
X16845Y8699D01*
X16782Y8782D01*
X16699Y8845D01*
X16603Y8885D01*
X16500Y8899D01*
D02*
G37*
G36*
X17500D02*
X17397Y8885D01*
X17301Y8845D01*
X17218Y8782D01*
X17155Y8699D01*
X17115Y8603D01*
X17101Y8500D01*
X17115Y8397D01*
X17155Y8301D01*
X17218Y8218D01*
X17301Y8155D01*
X17397Y8115D01*
X17500Y8101D01*
X17603Y8115D01*
X17699Y8155D01*
X17782Y8218D01*
X17845Y8301D01*
X17885Y8397D01*
X17899Y8500D01*
X17885Y8603D01*
X17845Y8699D01*
X17782Y8782D01*
X17699Y8845D01*
X17603Y8885D01*
X17500Y8899D01*
D02*
G37*
%LPD*%
D10*
X40000Y10244D02*
D03*
Y9988D02*
D03*
Y9732D02*
D03*
Y10500D02*
D03*
Y9476D02*
D03*
D11*
X41104Y9535D02*
D03*
Y10441D02*
D03*
D12*
X29280Y9240D02*
Y9280D01*
X38800Y9476D02*
X39200D01*
X30874Y8874D02*
X31500Y9500D01*
X30874Y2974D02*
Y8874D01*
X30400Y2500D02*
X30874Y2974D01*
X28500Y2500D02*
X30400D01*
X27000Y4000D02*
X28500Y2500D01*
X6070Y15000D02*
X6420Y14650D01*
Y7430D02*
Y14650D01*
Y7430D02*
X10850Y3000D01*
X12920D01*
X14446Y1474D01*
X24974D01*
X25500Y2000D01*
X11500Y8500D02*
X11890Y8890D01*
Y13350D01*
X11200Y14040D02*
X11890Y13350D01*
X11200Y14040D02*
Y16700D01*
X12000Y17500D01*
X9500Y13500D02*
Y14500D01*
Y13500D02*
X11500Y11500D01*
X15200Y2000D02*
X17070D01*
X17396Y1674D01*
X18374D01*
X20100Y3400D01*
X17700Y5100D02*
X21740D01*
X21970Y4870D01*
Y2750D02*
Y4870D01*
Y2750D02*
X22200Y2520D01*
X26000D01*
X26250Y2770D01*
Y6490D01*
X27950Y8190D01*
Y13050D01*
X27000Y14000D02*
X27950Y13050D01*
X20950Y8950D02*
Y13560D01*
X20500Y8500D02*
X20950Y8950D01*
X34500Y13480D02*
Y15500D01*
X29680Y8660D02*
X34500Y13480D01*
X29680Y8220D02*
Y8660D01*
X37170Y5000D02*
X37500D01*
X36330Y5840D02*
X37170Y5000D01*
X36330Y5840D02*
Y14740D01*
X35120Y15950D02*
X36330Y14740D01*
X32050Y15950D02*
X35120D01*
X32050Y14180D02*
Y15950D01*
X28500Y10630D02*
X32050Y14180D01*
X28500Y8500D02*
Y10630D01*
X15500Y8500D02*
X16560Y7440D01*
Y3240D02*
Y7440D01*
Y3240D02*
X17700Y2100D01*
X29280Y9280D02*
X31500Y11500D01*
X3000Y17500D02*
X5500Y15000D01*
X6070D01*
X31074Y1926D02*
X31500Y1500D01*
X31074Y1926D02*
Y5804D01*
X31200Y5930D01*
X32070D01*
X34500Y3500D01*
X6000Y4000D02*
Y8150D01*
Y4000D02*
X7000Y3000D01*
X29280Y3720D02*
Y9240D01*
Y3720D02*
X30000Y3000D01*
X6070Y18000D02*
X17111D01*
X22950Y12161D01*
Y5450D02*
Y12161D01*
X22500Y5000D02*
X22950Y5450D01*
X10770Y7130D02*
X12590Y8950D01*
X10770Y4230D02*
Y7130D01*
Y4230D02*
X11500Y3500D01*
Y5500D02*
X12560D01*
X15200Y2860D01*
Y2000D02*
Y2860D01*
X31500Y5500D02*
X31930Y5070D01*
Y1190D02*
Y5070D01*
X31600Y860D02*
X31930Y1190D01*
X29140Y860D02*
X31600D01*
X27000Y3000D02*
X29140Y860D01*
X39200Y9476D02*
X40000D01*
X38720Y8996D02*
X39200Y9476D01*
X38720Y5220D02*
Y8996D01*
X37500Y4000D02*
X38720Y5220D01*
X38400Y9876D02*
Y13200D01*
Y9876D02*
X38800Y9476D01*
X38400Y14200D02*
X39040Y13560D01*
Y10000D02*
Y13560D01*
Y10000D02*
X39308Y9732D01*
X40000D01*
X39600Y9988D02*
X40000D01*
X39500Y10088D02*
X39600Y9988D01*
X39500Y10088D02*
Y14100D01*
X38400Y15200D02*
X39500Y14100D01*
X15500Y11500D02*
Y15500D01*
X17000Y17000D01*
X27000Y9000D02*
X27500Y8500D01*
X27000Y9000D02*
Y12390D01*
X26610Y12780D02*
X27000Y12390D01*
X26610Y12780D02*
Y16610D01*
X27000Y17000D01*
X15200Y2000D02*
X15630Y2430D01*
Y6750D01*
X15050Y7330D02*
X15630Y6750D01*
X15050Y7330D02*
Y11050D01*
X15500Y11500D01*
X24000Y14000D02*
Y17000D01*
X0Y20000D02*
X42000D01*
X0Y0D02*
Y20000D01*
X42000Y0D02*
Y20000D01*
X0Y0D02*
X42000D01*
D13*
X7000Y2000D02*
D03*
Y3000D02*
D03*
Y4000D02*
D03*
Y5000D02*
D03*
X3000Y2000D02*
D03*
Y3000D02*
D03*
Y4000D02*
D03*
D14*
Y5000D02*
D03*
D15*
X11500Y6500D02*
D03*
X38400Y13200D02*
D03*
X15500Y8500D02*
D03*
X37500Y2000D02*
D03*
X3000Y15500D02*
D03*
X40000Y2500D02*
D03*
D16*
X11500Y5500D02*
D03*
Y4500D02*
D03*
Y3500D02*
D03*
Y2500D02*
D03*
Y1500D02*
D03*
X38400Y17200D02*
D03*
Y16200D02*
D03*
Y15200D02*
D03*
Y14200D02*
D03*
X16500Y8500D02*
D03*
X17500D02*
D03*
X18500D02*
D03*
X19500D02*
D03*
X20500D02*
D03*
X21500D02*
D03*
X22500D02*
D03*
X23500D02*
D03*
X24500D02*
D03*
X25500D02*
D03*
X26500D02*
D03*
X27500D02*
D03*
X28500D02*
D03*
X15500Y11500D02*
D03*
X16500D02*
D03*
X17500D02*
D03*
X18500D02*
D03*
X19500D02*
D03*
X20500D02*
D03*
X21500D02*
D03*
X22500D02*
D03*
X23500D02*
D03*
X24500D02*
D03*
X25500D02*
D03*
X26500D02*
D03*
X27500D02*
D03*
X28500D02*
D03*
X7000Y9016D02*
D03*
X37500Y3000D02*
D03*
Y4000D02*
D03*
Y5000D02*
D03*
Y6000D02*
D03*
Y7000D02*
D03*
X3000Y17500D02*
D03*
Y16500D02*
D03*
X25500Y2000D02*
D03*
Y3000D02*
D03*
Y4000D02*
D03*
Y5000D02*
D03*
X22500Y2000D02*
D03*
Y3000D02*
D03*
Y4000D02*
D03*
X40000Y1500D02*
D03*
X30000Y2000D02*
D03*
Y3000D02*
D03*
Y4000D02*
D03*
Y5000D02*
D03*
X27000Y2000D02*
D03*
Y3000D02*
D03*
Y4000D02*
D03*
D17*
X6070Y18000D02*
D03*
Y17000D02*
D03*
Y16000D02*
D03*
Y15000D02*
D03*
D18*
Y14000D02*
D03*
D19*
X30500Y15500D02*
D03*
X31500D02*
D03*
X33500D02*
D03*
X34500D02*
D03*
D20*
X32500D02*
D03*
D21*
X17700Y2100D02*
D03*
Y5100D02*
D03*
X15200Y2000D02*
D03*
Y5000D02*
D03*
X12000Y14500D02*
D03*
Y17500D02*
D03*
X9500D02*
D03*
Y14500D02*
D03*
X34500Y11500D02*
D03*
X31500D02*
D03*
X34500Y9500D02*
D03*
X31500D02*
D03*
X34500Y7500D02*
D03*
X31500D02*
D03*
X34500Y5500D02*
D03*
X31500D02*
D03*
X34500Y3500D02*
D03*
X31500D02*
D03*
X34500Y1500D02*
D03*
X31500D02*
D03*
D22*
X20100Y4400D02*
D03*
D23*
Y3400D02*
D03*
Y2400D02*
D03*
D24*
X7000Y10000D02*
D03*
X22500Y5000D02*
D03*
X27000D02*
D03*
D25*
X4992Y7992D02*
D03*
Y12008D02*
D03*
D26*
X39902Y9112D02*
D03*
Y10864D02*
D03*
D27*
X20000Y17000D02*
D03*
X17000D02*
D03*
X24000D02*
D03*
X27000D02*
D03*
X11500Y8500D02*
D03*
Y11500D02*
D03*
X20000Y14000D02*
D03*
X17000D02*
D03*
X24000D02*
D03*
X27000D02*
D03*
D28*
X20950Y13560D02*
D03*
X29680Y8220D02*
D03*
X6000Y8150D02*
D03*
X29280Y9240D02*
D03*
X12590Y8950D02*
D03*
M02*
