M48
;Layer_Color=9474304
;FILE_FORMAT=2:4
INCH,TZ
;TYPE=PLATED
T1F00S00C0.0200
T3F00S00C0.0276
T4F00S00C0.0280
T5F00S00C0.0300
T7F00S00C0.0335
T8F00S00C0.0350
T9F00S00C0.0354
T10F00S00C0.0394
T11F00S00C0.0787
%
T01
X6070Y14000
Y15000
Y16000
Y17000
Y18000
T03
X11500Y8500
Y11500
X17000Y14000
Y17000
X20000
Y14000
X24000
Y17000
X27000
Y14000
T04
X29680Y8220
X29280Y9240
X12590Y8950
X6000Y8150
X20950Y13560
T05
X30500Y15500
X31500
X32500
X33500
X34500
T07
X31500Y1500
Y3500
Y5500
Y7500
Y9500
Y11500
X34500
Y9500
Y7500
Y5500
Y3500
Y1500
X17700Y2100
X15200Y2000
Y5000
X17700Y5100
X12000Y14500
X9500
Y17500
X12000
T08
X7000Y2000
Y3000
Y4000
Y5000
X3000
Y4000
Y3000
Y2000
T09
X37500Y2000
Y3000
Y4000
Y5000
Y6000
Y7000
X40000Y2500
Y1500
X38400Y13200
X28500Y11500
X27500
X26500
X25500
X24500
X23500
X22500
X21500
Y8500
X22500
X23500
X24500
X25500
X26500
X27500
X28500
X30000Y5000
Y4000
Y3000
Y2000
X27000
Y3000
Y4000
Y5000
X25500
Y4000
Y3000
Y2000
X22500
Y3000
Y4000
Y5000
X20500Y8500
X19500
X18500
X17500
X16500
X15500
Y11500
X16500
X17500
X18500
X19500
X20500
X11500Y6500
Y5500
Y4500
Y3500
Y2500
Y1500
X7000Y9016
Y10000
X3000Y15500
Y16500
Y17500
X38400Y17200
Y16200
Y15200
Y14200
T10
X20100Y2400
Y3400
Y4400
T11
X4992Y7992
Y12008
M30
