G04 Layer_Color=16711935*
%FSLAX24Y24*%
%MOIN*%
G70*
G01*
G75*
%ADD37C,0.0630*%
%ADD38R,0.0630X0.0630*%
%ADD39R,0.0671X0.0671*%
%ADD40C,0.0671*%
%ADD41C,0.0480*%
%ADD42R,0.0480X0.0480*%
%ADD43C,0.0680*%
%ADD44R,0.0680X0.0680*%
%ADD45C,0.0631*%
%ADD46R,0.0710X0.0710*%
%ADD47C,0.0710*%
%ADD48R,0.0671X0.0671*%
%ADD49C,0.1379*%
%ADD50O,0.0572X0.0493*%
%ADD51C,0.0552*%
%ADD52C,0.0580*%
%ADD53O,0.0907X0.0631*%
D37*
X7000Y2000D02*
D03*
Y3000D02*
D03*
Y4000D02*
D03*
Y5000D02*
D03*
X3000Y2000D02*
D03*
Y3000D02*
D03*
Y4000D02*
D03*
D38*
Y5000D02*
D03*
D39*
X11500Y6500D02*
D03*
X38400Y13200D02*
D03*
X15500Y8500D02*
D03*
X37500Y2000D02*
D03*
X3000Y15500D02*
D03*
X40000Y2500D02*
D03*
D40*
X11500Y5500D02*
D03*
Y4500D02*
D03*
Y3500D02*
D03*
Y2500D02*
D03*
Y1500D02*
D03*
X38400Y17200D02*
D03*
Y16200D02*
D03*
Y15200D02*
D03*
Y14200D02*
D03*
X16500Y8500D02*
D03*
X17500D02*
D03*
X18500D02*
D03*
X19500D02*
D03*
X20500D02*
D03*
X21500D02*
D03*
X22500D02*
D03*
X23500D02*
D03*
X24500D02*
D03*
X25500D02*
D03*
X26500D02*
D03*
X27500D02*
D03*
X28500D02*
D03*
X15500Y11500D02*
D03*
X16500D02*
D03*
X17500D02*
D03*
X18500D02*
D03*
X19500D02*
D03*
X20500D02*
D03*
X21500D02*
D03*
X22500D02*
D03*
X23500D02*
D03*
X24500D02*
D03*
X25500D02*
D03*
X26500D02*
D03*
X27500D02*
D03*
X28500D02*
D03*
X7000Y9016D02*
D03*
X37500Y3000D02*
D03*
Y4000D02*
D03*
Y5000D02*
D03*
Y6000D02*
D03*
Y7000D02*
D03*
X3000Y17500D02*
D03*
Y16500D02*
D03*
X25500Y2000D02*
D03*
Y3000D02*
D03*
Y4000D02*
D03*
Y5000D02*
D03*
X22500Y2000D02*
D03*
Y3000D02*
D03*
Y4000D02*
D03*
X40000Y1500D02*
D03*
X30000Y2000D02*
D03*
Y3000D02*
D03*
Y4000D02*
D03*
Y5000D02*
D03*
X27000Y2000D02*
D03*
Y3000D02*
D03*
Y4000D02*
D03*
D41*
X6070Y18000D02*
D03*
Y17000D02*
D03*
Y16000D02*
D03*
Y15000D02*
D03*
D42*
Y14000D02*
D03*
D43*
X30500Y15500D02*
D03*
X31500D02*
D03*
X33500D02*
D03*
X34500D02*
D03*
D44*
X32500D02*
D03*
D45*
X17700Y2100D02*
D03*
Y5100D02*
D03*
X15200Y2000D02*
D03*
Y5000D02*
D03*
X12000Y14500D02*
D03*
Y17500D02*
D03*
X9500D02*
D03*
Y14500D02*
D03*
X34500Y11500D02*
D03*
X31500D02*
D03*
X34500Y9500D02*
D03*
X31500D02*
D03*
X34500Y7500D02*
D03*
X31500D02*
D03*
X34500Y5500D02*
D03*
X31500D02*
D03*
X34500Y3500D02*
D03*
X31500D02*
D03*
X34500Y1500D02*
D03*
X31500D02*
D03*
D46*
X20100Y4400D02*
D03*
D47*
Y3400D02*
D03*
Y2400D02*
D03*
D48*
X7000Y10000D02*
D03*
X22500Y5000D02*
D03*
X27000D02*
D03*
D49*
X4992Y7992D02*
D03*
Y12008D02*
D03*
D50*
X39902Y9112D02*
D03*
Y10864D02*
D03*
D51*
X20000Y17000D02*
D03*
X17000D02*
D03*
X24000D02*
D03*
X27000D02*
D03*
X11500Y8500D02*
D03*
Y11500D02*
D03*
X20000Y14000D02*
D03*
X17000D02*
D03*
X24000D02*
D03*
X27000D02*
D03*
D52*
X20950Y13560D02*
D03*
X29680Y8220D02*
D03*
X6000Y8150D02*
D03*
X29280Y9240D02*
D03*
X12590Y8950D02*
D03*
D53*
X41104Y11632D02*
D03*
Y8344D02*
D03*
M02*
