G04 Layer_Color=65535*
%FSLAX24Y24*%
%MOIN*%
G70*
G01*
G75*
%ADD12C,0.0100*%
%ADD30C,0.0098*%
%ADD31C,0.0079*%
%ADD32C,0.0236*%
%ADD33C,0.0010*%
%ADD34C,0.0010*%
D12*
X4750Y5500D02*
G03*
X5250Y5500I250J0D01*
G01*
X3625Y1500D02*
Y5500D01*
Y1500D02*
X6375D01*
Y5500D01*
X5250D02*
X6375D01*
X3625D02*
X4750D01*
X5570Y18500D02*
X6570D01*
Y13500D02*
Y18500D01*
X5570Y13500D02*
X6570D01*
X5570D02*
Y18500D01*
X29500Y17500D02*
X35500D01*
Y14250D02*
Y17500D01*
X29500Y14250D02*
Y17500D01*
Y14250D02*
X35500D01*
X2785Y5845D02*
Y6245D01*
X2985Y6445D01*
X3185Y6245D01*
Y5845D01*
Y6145D01*
X2785D01*
X3385Y6445D02*
Y5845D01*
X3685D01*
X3785Y5945D01*
Y6345D01*
X3685Y6445D01*
X3385D01*
X4384Y6345D02*
X4285Y6445D01*
X4085D01*
X3985Y6345D01*
Y5945D01*
X4085Y5845D01*
X4285D01*
X4384Y5945D01*
X10460Y1150D02*
X9860D01*
Y1450D01*
X9960Y1550D01*
X10160D01*
X10260Y1450D01*
Y1150D01*
X10060Y1750D02*
X10460D01*
X10260D01*
X10160Y1850D01*
X10060Y1950D01*
Y2050D01*
X10460Y2450D02*
Y2650D01*
X10360Y2749D01*
X10160D01*
X10060Y2650D01*
Y2450D01*
X10160Y2350D01*
X10360D01*
X10460Y2450D01*
X10660Y3149D02*
Y3249D01*
X10560Y3349D01*
X10060D01*
Y3049D01*
X10160Y2949D01*
X10360D01*
X10460Y3049D01*
Y3349D01*
X10060Y3549D02*
X10460D01*
X10260D01*
X10160Y3649D01*
X10060Y3749D01*
Y3849D01*
Y4249D02*
Y4449D01*
X10160Y4549D01*
X10460D01*
Y4249D01*
X10360Y4149D01*
X10260Y4249D01*
Y4549D01*
X10460Y4749D02*
X10060D01*
Y4849D01*
X10160Y4949D01*
X10460D01*
X10160D01*
X10060Y5049D01*
X10160Y5149D01*
X10460D01*
Y5349D02*
X10060D01*
Y5449D01*
X10160Y5549D01*
X10460D01*
X10160D01*
X10060Y5649D01*
X10160Y5749D01*
X10460D01*
Y6248D02*
Y6048D01*
X10360Y5948D01*
X10160D01*
X10060Y6048D01*
Y6248D01*
X10160Y6348D01*
X10260D01*
Y5948D01*
X10060Y6548D02*
X10460D01*
X10260D01*
X10160Y6648D01*
X10060Y6748D01*
Y6848D01*
X30250Y14900D02*
Y14500D01*
X30517D01*
X30916Y14833D02*
X30850Y14900D01*
X30717D01*
X30650Y14833D01*
Y14567D01*
X30717Y14500D01*
X30850D01*
X30916Y14567D01*
X31050Y14900D02*
Y14500D01*
X31250D01*
X31316Y14567D01*
Y14833D01*
X31250Y14900D01*
X31050D01*
X34417Y16267D02*
X34350Y16200D01*
Y16067D01*
X34417Y16000D01*
X34483D01*
X34550Y16067D01*
Y16200D01*
X34617Y16267D01*
X34683D01*
X34750Y16200D01*
Y16067D01*
X34683Y16000D01*
X34417Y16666D02*
X34350Y16600D01*
Y16467D01*
X34417Y16400D01*
X34683D01*
X34750Y16467D01*
Y16600D01*
X34683Y16666D01*
X34350Y16800D02*
X34750D01*
Y17066D01*
X33417Y16267D02*
X33350Y16200D01*
Y16067D01*
X33417Y16000D01*
X33483D01*
X33550Y16067D01*
Y16200D01*
X33617Y16267D01*
X33683D01*
X33750Y16200D01*
Y16067D01*
X33683Y16000D01*
X33350Y16400D02*
X33750D01*
Y16600D01*
X33683Y16666D01*
X33417D01*
X33350Y16600D01*
Y16400D01*
X33750Y16800D02*
X33483D01*
X33350Y16933D01*
X33483Y17066D01*
X33750D01*
X33550D01*
Y16800D01*
X32417Y16267D02*
X32350Y16200D01*
Y16067D01*
X32417Y16000D01*
X32683D01*
X32750Y16067D01*
Y16200D01*
X32683Y16267D01*
X32550D01*
Y16133D01*
X32750Y16400D02*
X32350D01*
X32750Y16666D01*
X32350D01*
Y16800D02*
X32750D01*
Y17000D01*
X32683Y17066D01*
X32417D01*
X32350Y17000D01*
Y16800D01*
X31350Y16000D02*
X31617D01*
X31750Y16133D01*
X31617Y16267D01*
X31350D01*
Y16400D02*
X31750D01*
Y16600D01*
X31683Y16666D01*
X31417D01*
X31350Y16600D01*
Y16400D01*
Y16800D02*
X31750D01*
Y17000D01*
X31683Y17066D01*
X31417D01*
X31350Y17000D01*
Y16800D01*
X30350Y16000D02*
X30750Y16267D01*
X30350D02*
X30750Y16000D01*
Y16400D02*
X30350D01*
Y16600D01*
X30417Y16666D01*
X30550D01*
X30617Y16600D01*
Y16400D01*
Y16533D02*
X30750Y16666D01*
X30417Y17066D02*
X30350Y17000D01*
Y16866D01*
X30417Y16800D01*
X30483D01*
X30550Y16866D01*
Y17000D01*
X30617Y17066D01*
X30683D01*
X30750Y17000D01*
Y16866D01*
X30683Y16800D01*
X30350Y17200D02*
Y17466D01*
Y17333D01*
X30750D01*
X36960Y13500D02*
X37460D01*
X37560Y13600D01*
Y13800D01*
X37460Y13900D01*
X36960D01*
X37060Y14500D02*
X36960Y14400D01*
Y14200D01*
X37060Y14100D01*
X37160D01*
X37260Y14200D01*
Y14400D01*
X37360Y14500D01*
X37460D01*
X37560Y14400D01*
Y14200D01*
X37460Y14100D01*
X36960Y14700D02*
X37560D01*
Y15000D01*
X37460Y15099D01*
X37360D01*
X37260Y15000D01*
Y14700D01*
Y15000D01*
X37160Y15099D01*
X37060D01*
X36960Y15000D01*
Y14700D01*
Y15899D02*
X37560D01*
Y16199D01*
X37460Y16299D01*
X37360D01*
X37260Y16199D01*
Y15899D01*
Y16199D01*
X37160Y16299D01*
X37060D01*
X36960Y16199D01*
Y15899D01*
Y16499D02*
X37460D01*
X37560Y16599D01*
Y16799D01*
X37460Y16899D01*
X36960D01*
X4089Y16109D02*
X3889D01*
X3789Y16009D01*
Y15609D01*
X3889Y15509D01*
X4089D01*
X4189Y15609D01*
Y16009D01*
X4089Y16109D01*
X4389Y15509D02*
Y16109D01*
X4689D01*
X4789Y16009D01*
Y15809D01*
X4689Y15709D01*
X4389D01*
X4989Y15409D02*
X5389D01*
X5589Y15509D02*
Y15909D01*
X5788Y16109D01*
X5988Y15909D01*
Y15509D01*
Y15809D01*
X5589D01*
X6188Y15509D02*
Y16109D01*
X6388Y15909D01*
X6588Y16109D01*
Y15509D01*
X6788D02*
Y16109D01*
X7088D01*
X7188Y16009D01*
Y15809D01*
X7088Y15709D01*
X6788D01*
X29550Y18470D02*
Y17870D01*
X29950D01*
X30550Y18370D02*
X30450Y18470D01*
X30250D01*
X30150Y18370D01*
Y17970D01*
X30250Y17870D01*
X30450D01*
X30550Y17970D01*
X30750Y18470D02*
Y17870D01*
X31050D01*
X31149Y17970D01*
Y18370D01*
X31050Y18470D01*
X30750D01*
X19800Y6450D02*
Y5950D01*
X19900Y5850D01*
X20100D01*
X20200Y5950D01*
Y6450D01*
X20400Y6350D02*
X20500Y6450D01*
X20700D01*
X20800Y6350D01*
Y6250D01*
X20700Y6150D01*
X20600D01*
X20700D01*
X20800Y6050D01*
Y5950D01*
X20700Y5850D01*
X20500D01*
X20400Y5950D01*
X17060Y3200D02*
Y3400D01*
Y3300D01*
X16460D01*
X16560Y3200D01*
X17060Y3700D02*
X16460D01*
X16860D02*
X16660Y4000D01*
X16860Y3700D02*
X17060Y4000D01*
X14560Y2800D02*
Y3000D01*
Y2900D01*
X13960D01*
X14060Y2800D01*
Y3300D02*
X13960Y3400D01*
Y3600D01*
X14060Y3700D01*
X14460D01*
X14560Y3600D01*
Y3400D01*
X14460Y3300D01*
X14060D01*
X14560Y3900D02*
X13960D01*
X14360D02*
X14160Y4200D01*
X14360Y3900D02*
X14560Y4200D01*
X36060Y2100D02*
Y1700D01*
X36360D01*
Y1900D01*
Y1700D01*
X36660D01*
X36060Y2300D02*
Y2700D01*
Y2500D01*
X36660D01*
X36060Y2900D02*
X36660D01*
Y3200D01*
X36560Y3299D01*
X36160D01*
X36060Y3200D01*
Y2900D01*
Y3499D02*
Y3699D01*
Y3599D01*
X36660D01*
Y3499D01*
Y3699D01*
X36160Y4999D02*
X36060Y4899D01*
Y4699D01*
X36160Y4599D01*
X36560D01*
X36660Y4699D01*
Y4899D01*
X36560Y4999D01*
X36260Y5299D02*
Y5499D01*
X36360Y5599D01*
X36660D01*
Y5299D01*
X36560Y5199D01*
X36460Y5299D01*
Y5599D01*
X36060Y5799D02*
X36660D01*
Y6099D01*
X36560Y6199D01*
X36460D01*
X36360D01*
X36260Y6099D01*
Y5799D01*
X36660Y6398D02*
Y6598D01*
Y6498D01*
X36060D01*
Y6398D01*
X36660Y7198D02*
Y6998D01*
X36560Y6898D01*
X36360D01*
X36260Y6998D01*
Y7198D01*
X36360Y7298D01*
X36460D01*
Y6898D01*
X24500Y17200D02*
X24600Y17300D01*
X24800D01*
X24900Y17200D01*
Y16800D01*
X24800Y16700D01*
X24600D01*
X24500Y16800D01*
Y17200D01*
X25100Y16700D02*
Y16800D01*
X25200D01*
Y16700D01*
X25100D01*
X25600D02*
X25800D01*
X25700D01*
Y17300D01*
X25600Y17200D01*
X26099Y17100D02*
Y16800D01*
X26199Y16700D01*
X26499D01*
Y17100D01*
X27099Y17300D02*
X26699D01*
Y17000D01*
X26899D01*
X26699D01*
Y16700D01*
X24500Y14200D02*
X24600Y14300D01*
X24800D01*
X24900Y14200D01*
Y13800D01*
X24800Y13700D01*
X24600D01*
X24500Y13800D01*
Y14200D01*
X25100Y13700D02*
Y13800D01*
X25200D01*
Y13700D01*
X25100D01*
X25600D02*
X25800D01*
X25700D01*
Y14300D01*
X25600Y14200D01*
X26099Y14100D02*
Y13800D01*
X26199Y13700D01*
X26499D01*
Y14100D01*
X27099Y14300D02*
X26699D01*
Y14000D01*
X26899D01*
X26699D01*
Y13700D01*
X17500Y17200D02*
X17600Y17300D01*
X17800D01*
X17900Y17200D01*
Y16800D01*
X17800Y16700D01*
X17600D01*
X17500Y16800D01*
Y17200D01*
X18100Y16700D02*
Y16800D01*
X18200D01*
Y16700D01*
X18100D01*
X18600D02*
X18800D01*
X18700D01*
Y17300D01*
X18600Y17200D01*
X19099Y17100D02*
Y16800D01*
X19199Y16700D01*
X19499D01*
Y17100D01*
X20099Y17300D02*
X19699D01*
Y17000D01*
X19899D01*
X19699D01*
Y16700D01*
X11700Y9250D02*
Y9450D01*
Y9350D01*
X11100D01*
X11200Y9250D01*
X11900Y9750D02*
X11300D01*
Y10050D01*
X11400Y10150D01*
X11600D01*
X11700Y10050D01*
Y9750D01*
X11100Y10750D02*
Y10350D01*
X11400D01*
Y10550D01*
Y10350D01*
X11700D01*
X17450Y13700D02*
X17650D01*
X17550D01*
Y14300D01*
X17450Y14200D01*
X17950D02*
X18050Y14300D01*
X18250D01*
X18350Y14200D01*
Y13800D01*
X18250Y13700D01*
X18050D01*
X17950Y13800D01*
Y14200D01*
X18550Y14100D02*
Y13800D01*
X18650Y13700D01*
X18950D01*
Y14100D01*
X19549Y14300D02*
X19149D01*
Y14000D01*
X19349D01*
X19149D01*
Y13700D01*
X38715Y9188D02*
X39214D01*
X39314Y9288D01*
Y9488D01*
X39214Y9588D01*
X38715D01*
X38814Y10188D02*
X38715Y10088D01*
Y9888D01*
X38814Y9788D01*
X38914D01*
X39014Y9888D01*
Y10088D01*
X39114Y10188D01*
X39214D01*
X39314Y10088D01*
Y9888D01*
X39214Y9788D01*
X38715Y10388D02*
X39314D01*
Y10688D01*
X39214Y10788D01*
X39114D01*
X39014Y10688D01*
Y10388D01*
Y10688D01*
X38914Y10788D01*
X38814D01*
X38715Y10688D01*
Y10388D01*
X80Y10300D02*
Y9700D01*
X380D01*
X480Y9800D01*
Y9900D01*
X380Y10000D01*
X80D01*
X380D01*
X480Y10100D01*
Y10200D01*
X380Y10300D01*
X80D01*
X680Y9700D02*
Y10300D01*
X1080Y9700D01*
Y10300D01*
X1679Y10200D02*
X1580Y10300D01*
X1380D01*
X1280Y10200D01*
Y9800D01*
X1380Y9700D01*
X1580D01*
X1679Y9800D01*
X11360Y15300D02*
Y15500D01*
Y15400D01*
X10760D01*
X10860Y15300D01*
X10760Y16200D02*
X10860Y16000D01*
X11060Y15800D01*
X11260D01*
X11360Y15900D01*
Y16100D01*
X11260Y16200D01*
X11160D01*
X11060Y16100D01*
Y15800D01*
X11360Y16400D02*
X10760D01*
X11160D02*
X10960Y16700D01*
X11160Y16400D02*
X11360Y16700D01*
X8860Y15250D02*
Y15450D01*
Y15350D01*
X8260D01*
X8360Y15250D01*
X8260Y16150D02*
X8360Y15950D01*
X8560Y15750D01*
X8760D01*
X8860Y15850D01*
Y16050D01*
X8760Y16150D01*
X8660D01*
X8560Y16050D01*
Y15750D01*
X8860Y16350D02*
X8260D01*
X8460Y16550D01*
X8260Y16750D01*
X8860D01*
X16250Y7180D02*
Y7780D01*
X16550D01*
X16650Y7680D01*
Y7480D01*
X16550Y7380D01*
X16250D01*
X16850Y7780D02*
X17050D01*
X16950D01*
Y7180D01*
X16850D01*
X17050D01*
X17750Y7680D02*
X17650Y7780D01*
X17450D01*
X17350Y7680D01*
Y7280D01*
X17450Y7180D01*
X17650D01*
X17750Y7280D01*
X17949Y7680D02*
X18049Y7780D01*
X18249D01*
X18349Y7680D01*
Y7580D01*
X18249Y7480D01*
X18149D01*
X18249D01*
X18349Y7380D01*
Y7280D01*
X18249Y7180D01*
X18049D01*
X17949Y7280D01*
X18949Y7180D02*
X18549D01*
X18949Y7580D01*
Y7680D01*
X18849Y7780D01*
X18649D01*
X18549Y7680D01*
X19149Y7180D02*
Y7780D01*
X19349Y7580D01*
X19549Y7780D01*
Y7180D01*
X19749Y7780D02*
X20149Y7180D01*
Y7780D02*
X19749Y7180D01*
X20749D02*
X20349D01*
X20749Y7580D01*
Y7680D01*
X20649Y7780D01*
X20449D01*
X20349Y7680D01*
X21348Y7780D02*
X20948D01*
Y7480D01*
X21148Y7580D01*
X21248D01*
X21348Y7480D01*
Y7280D01*
X21248Y7180D01*
X21048D01*
X20948Y7280D01*
X21548Y7680D02*
X21648Y7780D01*
X21848D01*
X21948Y7680D01*
Y7280D01*
X21848Y7180D01*
X21648D01*
X21548Y7280D01*
Y7680D01*
X22548Y7780D02*
X22148D01*
Y7480D01*
X22348D01*
X22148D01*
Y7180D01*
X22748D02*
X22948D01*
X22848D01*
Y7780D01*
X22748Y7680D01*
X23648Y7180D02*
X23248D01*
X23648Y7580D01*
Y7680D01*
X23548Y7780D01*
X23348D01*
X23248Y7680D01*
X23848D02*
X23948Y7780D01*
X24147D01*
X24247Y7680D01*
Y7580D01*
X24147Y7480D01*
X24247Y7380D01*
Y7280D01*
X24147Y7180D01*
X23948D01*
X23848Y7280D01*
Y7380D01*
X23948Y7480D01*
X23848Y7580D01*
Y7680D01*
X23948Y7480D02*
X24147D01*
X24447Y7780D02*
Y7180D01*
X24747D01*
X24847Y7280D01*
Y7380D01*
X24747Y7480D01*
X24447D01*
X24747D01*
X24847Y7580D01*
Y7680D01*
X24747Y7780D01*
X24447D01*
X25047Y7480D02*
X25447D01*
X25647Y7780D02*
X25847D01*
X25747D01*
Y7180D01*
X25647D01*
X25847D01*
X26147D02*
X26547Y7580D01*
X27146Y7680D02*
X27047Y7780D01*
X26847D01*
X26747Y7680D01*
Y7580D01*
X26847Y7480D01*
X27047D01*
X27146Y7380D01*
Y7280D01*
X27047Y7180D01*
X26847D01*
X26747Y7280D01*
X27346Y7180D02*
Y7780D01*
X27646D01*
X27746Y7680D01*
Y7480D01*
X27646Y7380D01*
X27346D01*
X1560Y14300D02*
X2160D01*
Y14600D01*
X2060Y14700D01*
X1960D01*
X1860Y14600D01*
Y14300D01*
Y14600D01*
X1760Y14700D01*
X1660D01*
X1560Y14600D01*
Y14300D01*
X1760Y14900D02*
X2160D01*
X1960D01*
X1860Y15000D01*
X1760Y15100D01*
Y15200D01*
X2160Y15800D02*
Y15600D01*
X2060Y15500D01*
X1860D01*
X1760Y15600D01*
Y15800D01*
X1860Y15899D01*
X1960D01*
Y15500D01*
X1760Y16199D02*
Y16399D01*
X1860Y16499D01*
X2160D01*
Y16199D01*
X2060Y16099D01*
X1960Y16199D01*
Y16499D01*
X2160Y16699D02*
X1560D01*
X1960D02*
X1760Y16999D01*
X1960Y16699D02*
X2160Y16999D01*
Y17399D02*
Y17599D01*
X2060Y17699D01*
X1860D01*
X1760Y17599D01*
Y17399D01*
X1860Y17299D01*
X2060D01*
X2160Y17399D01*
X1760Y17899D02*
X2060D01*
X2160Y17999D01*
Y18299D01*
X1760D01*
X1660Y18599D02*
X1760D01*
Y18499D01*
Y18699D01*
Y18599D01*
X2060D01*
X2160Y18699D01*
X39560Y3340D02*
Y3940D01*
X39860D01*
X39960Y3840D01*
Y3640D01*
X39860Y3540D01*
X39560D01*
X40560Y3940D02*
X40360Y3840D01*
X40160Y3640D01*
Y3440D01*
X40260Y3340D01*
X40460D01*
X40560Y3440D01*
Y3540D01*
X40460Y3640D01*
X40160D01*
X32650Y8740D02*
X32250D01*
Y8440D01*
X32450Y8540D01*
X32550D01*
X32650Y8440D01*
Y8240D01*
X32550Y8140D01*
X32350D01*
X32250Y8240D01*
X32850Y8640D02*
X32950Y8740D01*
X33150D01*
X33250Y8640D01*
Y8240D01*
X33150Y8140D01*
X32950D01*
X32850Y8240D01*
Y8640D01*
X33450Y8140D02*
Y8740D01*
Y8340D02*
X33750Y8540D01*
X33450Y8340D02*
X33750Y8140D01*
X32650Y6140D02*
X32250D01*
X32650Y6540D01*
Y6640D01*
X32550Y6740D01*
X32350D01*
X32250Y6640D01*
X32850D02*
X32950Y6740D01*
X33150D01*
X33250Y6640D01*
Y6240D01*
X33150Y6140D01*
X32950D01*
X32850Y6240D01*
Y6640D01*
X33450Y6140D02*
Y6740D01*
Y6340D02*
X33750Y6540D01*
X33450Y6340D02*
X33750Y6140D01*
X32300Y10140D02*
X32500D01*
X32400D01*
Y10740D01*
X32300Y10640D01*
X32800D02*
X32900Y10740D01*
X33100D01*
X33200Y10640D01*
Y10240D01*
X33100Y10140D01*
X32900D01*
X32800Y10240D01*
Y10640D01*
X33400Y10140D02*
Y10740D01*
Y10340D02*
X33700Y10540D01*
X33400Y10340D02*
X33700Y10140D01*
X32650Y12140D02*
X32250D01*
X32650Y12540D01*
Y12640D01*
X32550Y12740D01*
X32350D01*
X32250Y12640D01*
X33250Y12740D02*
X32850D01*
Y12440D01*
X33050Y12540D01*
X33150D01*
X33250Y12440D01*
Y12240D01*
X33150Y12140D01*
X32950D01*
X32850Y12240D01*
X33450Y12140D02*
Y12740D01*
Y12340D02*
X33750Y12540D01*
X33450Y12340D02*
X33750Y12140D01*
X31650Y4140D02*
X31850D01*
X31750D01*
Y4740D01*
X31650Y4640D01*
X32150D02*
X32250Y4740D01*
X32450D01*
X32550Y4640D01*
Y4240D01*
X32450Y4140D01*
X32250D01*
X32150Y4240D01*
Y4640D01*
X32750Y4140D02*
Y4740D01*
Y4340D02*
X33050Y4540D01*
X32750Y4340D02*
X33050Y4140D01*
X33349Y4440D02*
X33749D01*
X33949Y4740D02*
X34349D01*
X34149D01*
Y4140D01*
X31650Y2140D02*
X31850D01*
X31750D01*
Y2740D01*
X31650Y2640D01*
X32150D02*
X32250Y2740D01*
X32450D01*
X32550Y2640D01*
Y2240D01*
X32450Y2140D01*
X32250D01*
X32150Y2240D01*
Y2640D01*
X32750Y2140D02*
Y2740D01*
Y2340D02*
X33050Y2540D01*
X32750Y2340D02*
X33050Y2140D01*
X33349Y2440D02*
X33749D01*
X33949Y2740D02*
Y2140D01*
X34249D01*
X34349Y2240D01*
Y2340D01*
X34249Y2440D01*
X33949D01*
X34249D01*
X34349Y2540D01*
Y2640D01*
X34249Y2740D01*
X33949D01*
X26765Y6515D02*
Y6015D01*
X26865Y5915D01*
X27065D01*
X27165Y6015D01*
Y6515D01*
X27665Y5915D02*
Y6515D01*
X27365Y6215D01*
X27765D01*
X22260Y6510D02*
Y6010D01*
X22360Y5910D01*
X22560D01*
X22660Y6010D01*
Y6510D01*
X23260D02*
X22860D01*
Y6210D01*
X23060Y6310D01*
X23160D01*
X23260Y6210D01*
Y6010D01*
X23160Y5910D01*
X22960D01*
X22860Y6010D01*
D30*
X19677Y5250D02*
G03*
X19677Y5250I-49J0D01*
G01*
X15037Y8500D02*
G03*
X15037Y8500I-49J0D01*
G01*
X22549Y5512D02*
G03*
X22549Y5512I-49J0D01*
G01*
X27049D02*
G03*
X27049Y5512I-49J0D01*
G01*
D31*
X14992Y9750D02*
G03*
X14992Y10250I0J250D01*
G01*
X23750Y5528D02*
G03*
X24250Y5528I250J0D01*
G01*
X28250D02*
G03*
X28750Y5528I250J0D01*
G01*
X11000Y1000D02*
X12000D01*
X11000Y7000D02*
X12000D01*
Y1000D02*
Y7000D01*
X11000Y1000D02*
Y7000D01*
X37900Y12700D02*
X38900D01*
X37900D02*
Y17700D01*
X38900Y12700D02*
Y17700D01*
X37900D02*
X38900D01*
X17700Y2600D02*
X18000D01*
Y4600D01*
X17400D02*
X18000D01*
X17400Y2600D02*
Y4600D01*
Y2600D02*
X17700D01*
Y4600D02*
Y4690D01*
Y2510D02*
Y2600D01*
X15200Y2500D02*
X15500D01*
Y4500D01*
X14900D02*
X15500D01*
X14900Y2500D02*
Y4500D01*
Y2500D02*
X15200D01*
Y4500D02*
Y4590D01*
Y2410D02*
Y2500D01*
X21025Y1294D02*
Y5506D01*
X21222Y1294D02*
Y5506D01*
X19372Y1294D02*
Y5506D01*
X21222D01*
X19372Y1294D02*
X21222D01*
X14992Y8957D02*
X29008D01*
X14992Y11043D02*
X29008D01*
X14992Y8957D02*
Y9750D01*
Y10250D02*
Y11043D01*
X29008Y8957D02*
Y11043D01*
X-1307Y8110D02*
Y11890D01*
X2197Y7539D02*
Y12461D01*
Y12913D02*
X7748D01*
X2197Y12461D02*
Y12913D01*
X-1307Y12461D02*
X2197D01*
X-1307Y11890D02*
Y12461D01*
X-5992Y11890D02*
X-1307D01*
X-5992Y8110D02*
Y11890D01*
Y8110D02*
X-1307D01*
Y7539D02*
Y8110D01*
Y7539D02*
X2197D01*
Y7087D02*
Y7539D01*
Y7087D02*
X7748D01*
Y12913D01*
X39935Y8532D02*
X40612D01*
X39935D02*
Y8787D01*
Y11189D02*
Y11445D01*
X40612D01*
X37000Y7500D02*
X38000D01*
X37000Y1500D02*
X38000D01*
X37000D02*
Y7500D01*
X38000Y1500D02*
Y7500D01*
X20750Y16250D02*
Y17750D01*
X16250Y16250D02*
X20750D01*
X16250D02*
Y17750D01*
X20750D01*
X12000Y17000D02*
Y17090D01*
Y14910D02*
Y15000D01*
Y17000D02*
X12300D01*
Y15000D02*
Y17000D01*
X11700Y15000D02*
X12300D01*
X11700D02*
Y17000D01*
X12000D01*
X9500Y14910D02*
Y15000D01*
Y17000D02*
Y17090D01*
X9200Y15000D02*
X9500D01*
X9200D02*
Y17000D01*
X9800D01*
Y15000D02*
Y17000D01*
X9500Y15000D02*
X9800D01*
X23250Y16250D02*
Y17750D01*
X27750D01*
Y16250D02*
Y17750D01*
X23250Y16250D02*
X27750D01*
X10750Y7750D02*
Y12250D01*
Y7750D02*
X12250D01*
Y12250D01*
X10750D02*
X12250D01*
X16250Y13250D02*
X20750D01*
Y14750D01*
X16250D02*
X20750D01*
X16250Y13250D02*
Y14750D01*
X23250Y13250D02*
Y14750D01*
X27750D01*
Y13250D02*
Y14750D01*
X23250Y13250D02*
X27750D01*
X2500Y15000D02*
X3500D01*
X2500D02*
Y18000D01*
X3500D01*
Y15000D02*
Y18000D01*
X22957Y1472D02*
X25043D01*
X24250Y5528D02*
X25043D01*
X22957D02*
X23750D01*
X25043Y1472D02*
Y5528D01*
X22957Y1472D02*
Y5528D01*
X40500Y1000D02*
Y3000D01*
X39500D02*
X40500D01*
X39500Y1000D02*
Y3000D01*
Y1000D02*
X40500D01*
X27457Y1472D02*
X29543D01*
X28750Y5528D02*
X29543D01*
X27457D02*
X28250D01*
X29543Y1472D02*
Y5528D01*
X27457Y1472D02*
Y5528D01*
X31910Y11500D02*
X32000D01*
X34000D02*
X34090D01*
X32000D02*
Y11800D01*
X34000D01*
Y11200D02*
Y11800D01*
X32000Y11200D02*
X34000D01*
X32000D02*
Y11500D01*
X31910Y9500D02*
X32000D01*
X34000D02*
X34090D01*
X32000D02*
Y9800D01*
X34000D01*
Y9200D02*
Y9800D01*
X32000Y9200D02*
X34000D01*
X32000D02*
Y9500D01*
X31910Y7500D02*
X32000D01*
X34000D02*
X34090D01*
X32000D02*
Y7800D01*
X34000D01*
Y7200D02*
Y7800D01*
X32000Y7200D02*
X34000D01*
X32000D02*
Y7500D01*
X31910Y5500D02*
X32000D01*
X34000D02*
X34090D01*
X32000D02*
Y5800D01*
X34000D01*
Y5200D02*
Y5800D01*
X32000Y5200D02*
X34000D01*
X32000D02*
Y5500D01*
X31910Y3500D02*
X32000D01*
X34000D02*
X34090D01*
X32000D02*
Y3800D01*
X34000D01*
Y3200D02*
Y3800D01*
X32000Y3200D02*
X34000D01*
X32000D02*
Y3500D01*
X31910Y1500D02*
X32000D01*
X34000D02*
X34090D01*
X32000D02*
Y1800D01*
X34000D01*
Y1200D02*
Y1800D01*
X32000Y1200D02*
X34000D01*
X32000D02*
Y1500D01*
D32*
X15504Y9350D02*
G03*
X15504Y9350I-118J0D01*
G01*
X23468Y5134D02*
G03*
X23468Y5134I-118J0D01*
G01*
X27968D02*
G03*
X27968Y5134I-118J0D01*
G01*
D33*
X-3984Y10000D02*
G03*
X-3984Y10000I-394J0D01*
G01*
X2669Y7677D02*
Y12323D01*
X1449Y12461D02*
X1843Y7539D01*
X1055Y12461D02*
X1449Y7539D01*
X661Y12461D02*
X1055Y7539D01*
X268Y12461D02*
X661Y7539D01*
X-126Y12461D02*
X268Y7539D01*
X-520Y12461D02*
X-126Y7539D01*
X-913Y12461D02*
X-520Y7539D01*
X-1307Y12461D02*
X-913Y7539D01*
D34*
X-5992Y8110D02*
Y11890D01*
Y8110D02*
X-1307D01*
Y11890D01*
X-5992D02*
X-1307D01*
Y12461D01*
X2197D01*
Y7539D02*
Y12461D01*
X-1307Y7539D02*
X2197D01*
X-1307D02*
Y8110D01*
X2197Y12461D02*
Y12913D01*
X7748D01*
Y7087D02*
Y12913D01*
X2197Y7087D02*
X7748D01*
X2197D02*
Y7539D01*
X2669Y7677D02*
X5819D01*
Y12323D01*
X2669D02*
X5819D01*
M02*
