G04 Layer_Physical_Order=2*
G04 Layer_Color=16711680*
%FSLAX24Y24*%
%MOIN*%
G70*
G01*
G75*
%ADD12C,0.0100*%
%ADD13C,0.0550*%
%ADD14R,0.0550X0.0550*%
%ADD15R,0.0591X0.0591*%
%ADD16C,0.0591*%
%ADD17C,0.0400*%
%ADD18R,0.0400X0.0400*%
%ADD19C,0.0600*%
%ADD20R,0.0600X0.0600*%
%ADD21C,0.0551*%
%ADD22R,0.0630X0.0630*%
%ADD23C,0.0630*%
%ADD24R,0.0591X0.0591*%
%ADD25C,0.1299*%
%ADD26O,0.0492X0.0413*%
%ADD27C,0.0472*%
%ADD28C,0.0500*%
%ADD29O,0.0827X0.0551*%
D12*
X13360Y5000D02*
X14460D01*
X33500Y11500D02*
X34500D01*
X31500Y9500D02*
X33500Y11500D01*
X3000Y4000D02*
X6000D01*
X7000Y5000D01*
X33500Y7500D02*
X34500D01*
X31500Y5500D02*
X33500Y7500D01*
X39420Y920D02*
X40000Y1500D01*
X34210Y920D02*
X39420D01*
X33000Y2130D02*
X34210Y920D01*
X31210Y2130D02*
X33000D01*
X30540Y1460D02*
X31210Y2130D01*
X27540Y1460D02*
X30540D01*
X27000Y2000D02*
X27540Y1460D01*
X22500Y2000D02*
X22950Y1550D01*
X26550D01*
X27000Y2000D01*
X38050Y4450D02*
X40000Y2500D01*
X30450Y4450D02*
X38050D01*
X30000Y4000D02*
X30450Y4450D01*
X25500Y4000D02*
X26020D01*
X26470Y4450D01*
X29550D01*
X30000Y4000D01*
X26480Y5000D02*
X27000D01*
X26030Y4550D02*
X26480Y5000D01*
X22950Y4550D02*
X26030D01*
X22500Y5000D02*
X22950Y4550D01*
X25500Y2000D02*
X26020D01*
X26470Y2450D01*
X29550D01*
X30000Y2000D01*
X7000Y4000D02*
X11000D01*
X11500Y4500D01*
X6570Y17500D02*
X9500D01*
X6070Y17000D02*
X6570Y17500D01*
Y14500D02*
X9500D01*
X6070Y14000D02*
X6570Y14500D01*
X3000Y3000D02*
X3690D01*
X4190Y2500D01*
X7610D01*
X8060Y2050D01*
X12560D01*
X13250Y2740D01*
X19760D01*
X20100Y2400D01*
X31500Y3500D02*
X31970Y3030D01*
X36530D01*
X37500Y4000D01*
X21500Y11500D02*
X23490Y13490D01*
X37690D01*
X38400Y14200D01*
X22500Y11500D02*
X23710Y12710D01*
X38850D01*
Y14750D01*
X38400Y15200D02*
X38850Y14750D01*
X33030Y15030D02*
X33500Y15500D01*
X22420Y15030D02*
X33030D01*
X20950Y13560D02*
X22420Y15030D01*
X28950Y8950D02*
X29680Y8220D01*
X21950Y8950D02*
X28950D01*
X21500Y8500D02*
X21950Y8950D01*
X7000Y10000D02*
X11500Y14500D01*
X12000D01*
X26500Y11500D02*
X27190Y12190D01*
X35000D01*
X40450Y6740D01*
Y2100D02*
Y6740D01*
X40350Y2000D02*
X40450Y2100D01*
X38500Y2000D02*
X40350D01*
X37500Y3000D02*
X38500Y2000D01*
X35500Y8000D02*
X37500Y6000D01*
X30192Y8000D02*
X35500D01*
X29882Y7690D02*
X30192Y8000D01*
X26310Y7690D02*
X29882D01*
X25500Y8500D02*
X26310Y7690D01*
X35731Y8769D02*
X37500Y7000D01*
X30990Y8769D02*
X35731D01*
X29911Y9848D02*
X30990Y8769D01*
X29152Y9848D02*
X29911D01*
X27500Y11500D02*
X29152Y9848D01*
X10490Y3510D02*
X11500Y2500D01*
X2810Y3510D02*
X10490D01*
X2570Y3750D02*
X2810Y3510D01*
X2570Y3750D02*
Y4270D01*
X2800Y4500D01*
X4090D01*
X5610Y6020D01*
X13960D01*
X15890Y7950D01*
X18950D01*
X19500Y8500D01*
X18050Y11050D02*
X18500Y11500D01*
X13560Y11050D02*
X18050D01*
X12720Y11890D02*
X13560Y11050D01*
X11000Y11890D02*
X12720D01*
X7260Y8150D02*
X11000Y11890D01*
X6000Y8150D02*
X7260D01*
X34500Y5500D02*
X37650D01*
X37950Y5800D01*
Y6200D01*
X37700Y6450D02*
X37950Y6200D01*
X37360Y6450D02*
X37700D01*
X35430Y8380D02*
X37360Y6450D01*
X30960Y8380D02*
X35430D01*
X29700Y9640D02*
X30960Y8380D01*
X25530Y9640D02*
X29700D01*
X25310Y9860D02*
X25530Y9640D01*
X13140Y9860D02*
X25310D01*
X11500Y11500D02*
X13140Y9860D01*
X3000Y5000D02*
X4800Y6800D01*
X6490D01*
X9200Y9510D01*
X24820D01*
X25090Y9240D01*
X29280D01*
X22400Y10400D02*
X23500Y11500D01*
X21600Y10400D02*
X22400D01*
X21000Y11000D02*
X21600Y10400D01*
X21000Y11000D02*
Y11950D01*
X20000Y12950D02*
X21000Y11950D01*
X20000Y12950D02*
Y14000D01*
X3960Y2000D02*
X7000D01*
X3480Y2480D02*
X3960Y2000D01*
X2800Y2480D02*
X3480D01*
X2370Y2910D02*
X2800Y2480D01*
X2370Y2910D02*
Y6570D01*
X10770Y14970D01*
X17210D01*
X18950Y13230D01*
Y10800D02*
Y13230D01*
Y10800D02*
X19550Y10200D01*
X24200D01*
X25500Y11500D01*
X30290Y7500D02*
X31500D01*
X30280Y7490D02*
X30290Y7500D01*
X16950Y7490D02*
X30280D01*
X14460Y5000D02*
X16950Y7490D01*
X2690Y2310D02*
X3000Y2000D01*
X2660Y2310D02*
X2690D01*
X2170Y2800D02*
X2660Y2310D01*
X2170Y2800D02*
Y13250D01*
X4330Y15410D01*
X18890D01*
X19500Y14800D01*
Y11500D02*
Y14800D01*
X30780Y780D02*
X31500Y1500D01*
X22360Y780D02*
X30780D01*
X22050Y1090D02*
X22360Y780D01*
X22050Y1090D02*
Y2550D01*
X22500Y3000D01*
X18050Y8950D02*
X18500Y8500D01*
X12590Y8950D02*
X18050D01*
X11500Y6500D02*
X13500D01*
X15500Y8500D01*
X22500Y4000D02*
X24500D01*
X25500Y3000D01*
X3570Y15500D02*
X6070Y18000D01*
X3000Y15500D02*
X3570D01*
X27000Y17000D02*
X30000D01*
X31500Y15500D01*
X20100Y2400D02*
X21200Y3500D01*
X23600D01*
X24600Y2500D01*
X25850D01*
X26850Y3500D01*
X31500D01*
X21580Y4000D02*
X22500D01*
X21480Y3900D02*
X21580Y4000D01*
X14460Y3900D02*
X21480D01*
X13360Y5000D02*
X14460Y3900D01*
X7000Y5000D02*
X13360D01*
X17000Y17000D02*
X18560Y18560D01*
X25440D01*
X27000Y17000D01*
X9500Y17500D02*
X12000D01*
X16500Y5100D02*
X17700D01*
X16400Y5000D02*
X16500Y5100D01*
X15200Y5000D02*
X16400D01*
D13*
X7000Y2000D02*
D03*
Y3000D02*
D03*
Y4000D02*
D03*
Y5000D02*
D03*
X3000Y2000D02*
D03*
Y3000D02*
D03*
Y4000D02*
D03*
D14*
Y5000D02*
D03*
D15*
X11500Y6500D02*
D03*
X38400Y13200D02*
D03*
X15500Y8500D02*
D03*
X37500Y2000D02*
D03*
X3000Y15500D02*
D03*
X40000Y2500D02*
D03*
D16*
X11500Y5500D02*
D03*
Y4500D02*
D03*
Y3500D02*
D03*
Y2500D02*
D03*
Y1500D02*
D03*
X38400Y17200D02*
D03*
Y16200D02*
D03*
Y15200D02*
D03*
Y14200D02*
D03*
X16500Y8500D02*
D03*
X17500D02*
D03*
X18500D02*
D03*
X19500D02*
D03*
X20500D02*
D03*
X21500D02*
D03*
X22500D02*
D03*
X23500D02*
D03*
X24500D02*
D03*
X25500D02*
D03*
X26500D02*
D03*
X27500D02*
D03*
X28500D02*
D03*
X15500Y11500D02*
D03*
X16500D02*
D03*
X17500D02*
D03*
X18500D02*
D03*
X19500D02*
D03*
X20500D02*
D03*
X21500D02*
D03*
X22500D02*
D03*
X23500D02*
D03*
X24500D02*
D03*
X25500D02*
D03*
X26500D02*
D03*
X27500D02*
D03*
X28500D02*
D03*
X7000Y9016D02*
D03*
X37500Y3000D02*
D03*
Y4000D02*
D03*
Y5000D02*
D03*
Y6000D02*
D03*
Y7000D02*
D03*
X3000Y17500D02*
D03*
Y16500D02*
D03*
X25500Y2000D02*
D03*
Y3000D02*
D03*
Y4000D02*
D03*
Y5000D02*
D03*
X22500Y2000D02*
D03*
Y3000D02*
D03*
Y4000D02*
D03*
X40000Y1500D02*
D03*
X30000Y2000D02*
D03*
Y3000D02*
D03*
Y4000D02*
D03*
Y5000D02*
D03*
X27000Y2000D02*
D03*
Y3000D02*
D03*
Y4000D02*
D03*
D17*
X6070Y18000D02*
D03*
Y17000D02*
D03*
Y16000D02*
D03*
Y15000D02*
D03*
D18*
Y14000D02*
D03*
D19*
X30500Y15500D02*
D03*
X31500D02*
D03*
X33500D02*
D03*
X34500D02*
D03*
D20*
X32500D02*
D03*
D21*
X17700Y2100D02*
D03*
Y5100D02*
D03*
X15200Y2000D02*
D03*
Y5000D02*
D03*
X12000Y14500D02*
D03*
Y17500D02*
D03*
X9500D02*
D03*
Y14500D02*
D03*
X34500Y11500D02*
D03*
X31500D02*
D03*
X34500Y9500D02*
D03*
X31500D02*
D03*
X34500Y7500D02*
D03*
X31500D02*
D03*
X34500Y5500D02*
D03*
X31500D02*
D03*
X34500Y3500D02*
D03*
X31500D02*
D03*
X34500Y1500D02*
D03*
X31500D02*
D03*
D22*
X20100Y4400D02*
D03*
D23*
Y3400D02*
D03*
Y2400D02*
D03*
D24*
X7000Y10000D02*
D03*
X22500Y5000D02*
D03*
X27000D02*
D03*
D25*
X4992Y7992D02*
D03*
Y12008D02*
D03*
D26*
X39902Y9112D02*
D03*
Y10864D02*
D03*
D27*
X20000Y17000D02*
D03*
X17000D02*
D03*
X24000D02*
D03*
X27000D02*
D03*
X11500Y8500D02*
D03*
Y11500D02*
D03*
X20000Y14000D02*
D03*
X17000D02*
D03*
X24000D02*
D03*
X27000D02*
D03*
D28*
X20950Y13560D02*
D03*
X29680Y8220D02*
D03*
X6000Y8150D02*
D03*
X29280Y9240D02*
D03*
X12590Y8950D02*
D03*
D29*
X41104Y11632D02*
D03*
Y8344D02*
D03*
M02*
